<svg width="20" height="21" viewBox="0 0 20 21" fill="none" xmlns="http://www.w3.org/2000/svg">
<path d="M9.10331 3.98329C9.47015 3.24012 10.5299 3.24012 10.8967 3.98329L12.3426 6.91241C12.4881 7.20726 12.7693 7.41172 13.0947 7.45928L16.3296 7.93211C17.1495 8.05195 17.4763 9.05979 16.8827 9.63795L14.5435 11.9163C14.3076 12.1461 14.1999 12.4772 14.2556 12.8017L14.8074 16.0193C14.9476 16.8362 14.09 17.4592 13.3564 17.0734L10.4655 15.5531C10.1741 15.3999 9.82595 15.3999 9.53457 15.5531L6.64365 17.0734C5.91002 17.4592 5.05247 16.8362 5.19259 16.0193L5.74444 12.8017C5.8001 12.4772 5.69244 12.1461 5.45656 11.9163L3.11737 9.63795C2.52377 9.05979 2.85056 8.05195 3.67047 7.93211L6.90539 7.45928C7.23074 7.41172 7.51193 7.20726 7.65747 6.91241L9.10331 3.98329Z" fill="#FEB60D"/>
</svg>
