<svg width="24" height="24" viewBox="0 0 24 24" fill="none" xmlns="http://www.w3.org/2000/svg">
<g opacity="0.64">
<rect x="0.5" y="0.5" width="23" height="23" rx="11.5" stroke="#F3F7FF"/>
<g clip-path="url(#clip0_1_828)">
<g clip-path="url(#clip1_1_828)">
<path fill-rule="evenodd" clip-rule="evenodd" d="M16.2516 7.74387C15.1235 6.6199 13.6234 6.00065 12.025 6C8.73177 6 6.05139 8.66735 6.05011 11.9459C6.04965 12.994 6.32478 14.0169 6.84766 14.9187L6 18L9.16739 17.1731C10.0401 17.6468 11.0227 17.8965 12.0227 17.8969H12.0251C12.0249 17.8969 12.0253 17.8969 12.0251 17.8969C15.318 17.8969 17.9986 15.2293 18 11.9507C18.0006 10.3618 17.3797 8.86779 16.2516 7.74387ZM12.0251 16.8926H12.0231C11.132 16.8923 10.258 16.654 9.49547 16.2037L9.31415 16.0966L7.43457 16.5873L7.93628 14.7635L7.81819 14.5765C7.32109 13.7896 7.05855 12.8801 7.05893 11.9462C7.06 9.22124 9.28783 7.00429 12.0271 7.00429C13.3535 7.0047 14.6004 7.51949 15.538 8.45369C16.4756 9.38789 16.9917 10.6296 16.9911 11.9502C16.99 14.6755 14.7623 16.8926 12.0251 16.8926Z" fill="#F3F7FF"/>
<path fill-rule="evenodd" clip-rule="evenodd" d="M14.6956 13.2715C14.548 13.1919 13.8222 12.8073 13.6868 12.7542C13.5515 12.7011 13.4531 12.6746 13.3547 12.8338C13.2563 12.9929 12.9734 13.3511 12.8873 13.4573C12.8012 13.5633 12.715 13.5767 12.5675 13.497C12.4198 13.4174 11.9442 13.2495 11.3803 12.7078C10.9415 12.2861 10.6452 11.7654 10.5591 11.6062C10.473 11.447 10.5499 11.361 10.6238 11.2817C10.6902 11.2104 10.7714 11.096 10.8453 11.0031C10.9191 10.9103 10.9437 10.8439 10.9929 10.7378C11.0421 10.6317 11.0175 10.5388 10.9806 10.4593C10.9437 10.3797 10.6484 9.59698 10.5254 9.27853C10.4056 8.96851 10.2839 9.01051 10.1933 9.00558C10.1073 9.00096 10.0087 9 9.91034 9C9.81194 9 9.65198 9.03981 9.5167 9.19897C9.38139 9.35818 9 9.74291 9 10.5255C9 11.3082 9.52898 12.0644 9.60279 12.1705C9.67659 12.2766 10.6437 13.8827 12.1246 14.5715C12.4768 14.7354 12.7518 14.8332 12.9662 14.9065C13.3198 15.0275 13.6416 15.0104 13.896 14.9695C14.1796 14.9238 14.7694 14.5848 14.8924 14.2134C15.0154 13.842 15.0154 13.5235 14.9785 13.4572C14.9416 13.3909 14.8432 13.3511 14.6956 13.2715Z" fill="#F3F7FF"/>
</g>
</g>
</g>
<defs>
<clipPath id="clip0_1_828">
<rect width="14" height="14" fill="white" transform="translate(5 5)"/>
</clipPath>
<clipPath id="clip1_1_828">
<rect width="14" height="14" fill="white" transform="translate(5 5)"/>
</clipPath>
</defs>
</svg>
