<svg width="88" height="88" viewBox="0 0 88 88" fill="none" xmlns="http://www.w3.org/2000/svg">
<path d="M47.2194 43.6344C47.4212 43.7933 47.613 43.9647 47.7934 44.148C48.8783 45.2509 49.5505 46.7764 49.5505 48.4597C49.5505 50.1432 48.8783 51.6686 47.7934 52.7715L47.7917 52.7698C47.4803 53.086 47.1351 53.368 46.7621 53.6091C46.9139 52.8341 47.0648 52.073 47.1005 51.2843C47.1056 51.1695 47.1081 51.0552 47.1081 50.9413C47.5851 50.2356 47.865 49.3808 47.865 48.4597C47.865 47.4151 47.5051 46.4546 46.9046 45.7016L46.9526 45.5312C47.0175 45.3089 47.0838 45.0899 47.1491 44.8761C47.1503 44.7755 47.1544 44.6663 47.1609 44.5429C47.1744 44.2868 47.1972 43.9732 47.2194 43.6344ZM40.9917 53.9741C40.3655 53.6724 39.7983 53.2641 39.3134 52.7715L39.3117 52.7698L39.31 52.7682C38.224 51.663 37.5528 50.1393 37.5528 48.4597C37.5528 46.7792 38.225 45.2548 39.3117 44.1496L39.31 44.148C39.8338 43.6155 40.4546 43.1808 41.1431 42.8735C41.2201 43.4176 41.2834 43.9321 41.3111 44.5725L41.3179 44.7082C41.0204 44.8915 40.746 45.1108 40.5016 45.3594H40.4982C39.7199 46.15 39.2384 47.2467 39.2384 48.4597C39.2384 49.6728 39.7199 50.7695 40.4982 51.5601L40.5016 51.5636L40.513 51.5748C40.6049 52.2542 40.768 52.9246 40.904 53.5782C40.9319 53.7106 40.961 53.842 40.9917 53.9741ZM24.9745 21.161C24.9781 21.1522 24.9828 21.1423 24.987 21.1333C24.9971 21.1336 24.9959 21.1406 24.995 21.1479C24.9967 21.1543 24.9959 21.162 24.9971 21.1693C24.9891 21.1666 24.9815 21.1637 24.9745 21.161ZM27.1461 17.29C27.1429 17.2841 27.1516 17.2991 27.1461 17.29V17.29ZM27.303 16.3512C27.3203 16.4855 27.3013 16.6158 27.2439 16.7731C27.2314 16.633 27.2823 16.495 27.303 16.3512ZM27.1769 17.1804C27.201 17.1972 27.1816 17.2588 27.145 17.2541C27.1478 17.2169 27.1665 17.2049 27.1769 17.1804ZM22.6244 12.3023C22.5978 12.3144 22.5729 12.3306 22.5355 12.3243C22.5628 12.3121 22.5877 12.2959 22.6244 12.3023ZM22.5 12.325C22.5393 12.3542 22.4225 12.3683 22.3976 12.391C22.3614 12.424 22.3054 12.4223 22.2716 12.4609C22.1717 12.4845 22.095 12.5512 22.0078 12.5974C21.8219 12.6665 21.6812 12.8151 21.5149 12.9174C21.205 13.1706 20.9173 13.4623 20.6358 13.7647C21.0239 12.9332 21.723 12.5165 22.5 12.325ZM17.7523 20.0183C17.7724 20.0209 17.7716 20.0349 17.7602 20.0328C17.5867 20.2162 17.4042 20.3841 17.1669 20.4534C17.3493 20.2861 17.5542 20.1575 17.7523 20.0183ZM49.4907 41.6895C49.6166 41.804 49.7402 41.9221 49.8598 42.0439L49.8632 42.0472C51.478 43.6892 52.4775 45.9568 52.4775 48.4597C52.4775 50.9649 51.478 53.2342 49.8632 54.8756H49.8598C48.8611 55.8905 47.6278 56.6663 46.2493 57.1104C46.3163 56.4605 46.4006 55.8224 46.4904 55.1893C47.3096 54.8196 48.0482 54.3008 48.6733 53.666L48.6716 53.6642C49.9812 52.333 50.7919 50.4924 50.7919 48.4597C50.7919 46.426 49.9821 44.5852 48.6733 43.2536C48.2552 42.8291 47.7865 42.4568 47.2771 42.1458C47.2767 41.9984 47.2725 41.8554 47.2649 41.7193C47.3437 41.7505 47.4216 41.7818 47.4979 41.7998C48.0332 41.9239 48.5442 42.0208 49.0925 42.135C49.154 41.9818 49.2644 41.8092 49.2847 41.6708C49.3521 41.6733 49.4206 41.6803 49.4907 41.6895ZM41.8589 57.37C40.0731 57.0212 38.4756 56.1316 37.2401 54.8756C35.6254 53.2342 34.6258 50.9649 34.6258 48.4597C34.6258 46.276 35.3869 44.2718 36.6532 42.7056L36.9 42.7357C37.091 42.7579 37.2712 42.8282 37.4457 42.8397C38.082 42.8812 38.7753 42.4512 39.3846 42.2765C39.5257 42.2362 39.6643 42.1985 39.8014 42.1624C39.302 42.4705 38.8423 42.838 38.4318 43.2553L38.4301 43.2536C37.1212 44.5852 36.3114 46.426 36.3114 48.4597C36.3114 50.4924 37.1222 52.333 38.4318 53.6642C39.2467 54.4927 40.2556 55.1246 41.3833 55.484L41.496 55.9098C41.6225 56.3941 41.7406 56.8813 41.8589 57.37ZM38.0816 41.289C38.5005 40.9584 38.9498 40.665 39.4237 40.4131C39.3774 40.4662 39.3365 40.5228 39.3071 40.5913C39.253 40.7164 39.1966 40.8368 39.1839 40.9734C38.8208 41.0831 38.4542 41.1902 38.0816 41.289ZM40.9896 39.7659L41.2209 39.6991L41.0625 39.7783L40.9896 39.7659ZM46.5371 36.6508C48.4739 37.1555 50.2217 38.1394 51.6508 39.4708C51.3325 39.7582 51.124 40.1813 50.7726 40.2898C50.7363 40.3695 50.7868 40.4342 50.6972 40.4538C50.486 40.4419 50.2534 40.3716 50.0226 40.3056C49.0452 39.5028 47.9206 38.8784 46.6961 38.48C46.6535 38.088 46.5064 37.6927 46.5271 37.2206C46.5354 37.0287 46.5398 36.838 46.5371 36.6508ZM52.7405 40.6282C54.4896 42.7463 55.5435 45.4785 55.5435 48.4597C55.5435 51.8253 54.2005 54.8739 52.0307 57.0795C50.4354 58.7012 48.3917 59.8686 46.1057 60.3728C46.0917 59.7679 46.1027 59.1801 46.1323 58.6053C47.9417 58.1311 49.5581 57.1704 50.839 55.8681C52.7038 53.9727 53.8579 51.3528 53.8579 48.4597C53.8579 45.941 52.9831 43.6296 51.526 41.8229C51.9567 41.4977 52.3524 41.074 52.7405 40.6282ZM42.9103 60.6328C39.8543 60.4691 37.1007 59.1417 35.0721 57.0795C32.9023 54.8739 31.5599 51.8253 31.5599 48.4597C31.5599 46.0857 32.2277 43.8699 33.3831 41.9959C33.9799 42.0932 34.5609 42.2431 35.136 42.4101C33.9453 44.1189 33.2454 46.2062 33.2454 48.4597C33.2454 51.3528 34.3991 53.9727 36.2637 55.8681C37.8352 57.4655 39.9126 58.5492 42.2307 58.8509C42.2799 59.036 42.3309 59.2213 42.3839 59.4064C42.5265 59.9049 42.6061 60.3801 42.9103 60.6328ZM34.0082 41.0784C34.3351 40.6414 34.6908 40.228 35.0721 39.8404C36.9397 37.9419 39.4216 36.6668 42.188 36.348C42.2037 36.8265 42.2407 37.4694 42.2652 38.0645C39.9331 38.3596 37.8431 39.4463 36.2637 41.0518L36.1244 41.197C35.426 41.1645 34.7232 41.1923 34.0082 41.0784ZM43.5517 33.1529C47.4263 33.1529 50.9606 34.6415 53.6291 37.086C53.5129 37.4047 53.4113 37.8485 53.3325 38.0708C53.3409 38.1064 53.3492 38.142 53.3568 38.1783C53.1825 38.3549 52.9801 38.4988 52.7868 38.6281C51.0232 36.916 48.7995 35.6892 46.3235 35.1589C46.235 34.8908 46.1145 34.6418 45.9536 34.4191C45.4643 33.7424 44.5018 33.155 43.6229 33.6673C42.8719 33.6156 42.4686 34.1827 42.2922 34.9264C39.1019 35.2292 36.2368 36.6711 34.0957 38.8476C33.6309 39.3205 33.1999 39.8275 32.8072 40.3656C32.8089 40.0962 32.7937 39.9286 32.6555 39.6995C32.4284 39.3226 32.1568 39.1181 31.8498 38.8261C32.181 38.4109 32.5328 38.0135 32.904 37.6361C35.6292 34.8667 39.3933 33.1529 43.5517 33.1529ZM55.2873 38.868C57.3652 41.4927 58.6094 44.829 58.6094 48.4597C58.6094 52.6868 56.9235 56.5132 54.1993 59.2834C51.8429 61.678 48.7086 63.283 45.2161 63.6736C45.2116 63.6034 45.2103 63.5292 45.2137 63.4491C45.2348 62.9527 45.4875 62.5317 45.5099 62.0013C45.7201 61.9897 45.9185 61.9658 46.0643 61.8888L46.0905 61.8081C48.765 61.2852 51.1569 59.953 53.0076 58.072C55.4267 55.6124 56.9239 52.2135 56.9239 48.4597C56.9239 45.0577 55.6944 41.947 53.6629 39.5629C53.7757 39.4386 53.8891 39.3173 54.0051 39.2013C54.0408 39.2316 54.0795 39.2575 54.123 39.2755C54.2789 39.3415 54.5515 39.3285 54.7969 39.2621L54.8254 39.1427C54.8971 39.1023 54.9493 39.0608 54.9507 38.9996C55.0914 38.9842 55.2 38.9375 55.2873 38.868ZM43.5103 63.7663C39.3686 63.7547 35.6202 62.0438 32.904 59.2834C30.1798 56.5132 28.4939 52.6868 28.4939 48.4597C28.4939 46.9943 28.6969 45.577 29.0753 44.2349C29.2747 44.2469 29.4735 44.2851 29.667 44.1938C29.5477 43.9527 29.4347 43.6973 29.3256 43.4318C29.6165 42.5823 29.9784 41.7664 30.4048 40.9918L30.4077 41.03C30.4346 41.5886 30.3817 42.4012 31.0256 42.2354C31.2468 41.9102 31.047 41.3444 31.05 40.9293C31.0778 40.9285 31.1047 40.9267 31.1309 40.9236C31.1186 40.9841 31.1385 41.042 31.216 41.0954C31.167 41.1881 31.111 41.2809 31.1321 41.3684C31.1936 41.4327 31.2506 41.4369 31.3087 41.4481C31.3343 41.5349 31.2606 41.6297 31.2758 41.7175C31.449 41.8015 31.3571 41.9063 31.4023 42.0011C31.4932 42.0847 31.5834 42.1603 31.6723 42.2126C30.7187 44.0834 30.1794 46.2075 30.1794 48.4597C30.1794 52.2135 31.6766 55.6124 34.0957 58.072C36.496 60.5116 39.8052 62.0279 43.4622 62.0523C43.3954 62.6512 43.4535 63.2073 43.5103 63.7663ZM43.5517 30.0363C47.9745 30.0363 52.0286 31.6478 55.1751 34.3245L55.0834 34.5305C54.8802 34.9675 54.5536 35.3319 54.351 35.7492C54.3379 35.7758 54.3265 35.8027 54.3159 35.8307C51.432 33.2882 47.6686 31.7497 43.5517 31.7497C39.0124 31.7497 34.9023 33.6202 31.928 36.6441C31.5707 37.0073 31.2299 37.3868 30.9067 37.7821C30.7377 37.4893 30.615 37.0814 30.4819 36.7112C30.3942 36.4684 30.3175 36.213 30.2476 35.9498C30.4077 35.7745 30.57 35.6019 30.7364 35.4326C34.0158 32.0988 38.5468 30.0363 43.5517 30.0363ZM56.2362 35.3012L56.3668 35.4326C58.5344 37.6356 60.1551 40.3952 61.0055 43.4819C61.0456 44.7549 61.1109 45.9946 61.2786 47.2608C61.4176 48.3099 61.5066 49.3636 61.574 50.4196C61.1265 54.7245 59.2197 58.5874 56.3668 61.4869C53.3779 64.5256 49.3479 66.5085 44.8685 66.8353C44.9535 66.7133 45.0707 66.577 45.1218 66.5141C45.4163 66.1462 46.0736 65.8514 45.6948 65.2359C45.6893 65.1635 45.6796 65.0962 45.6665 65.0329C49.3601 64.5505 52.6704 62.822 55.1751 60.2755C58.1497 57.2523 59.9899 53.074 59.9899 48.4597C59.9899 44.2785 58.4792 40.456 55.9827 37.5256C56.0381 37.3839 56.0706 37.2434 56.0495 37.1036C56.0242 36.9392 55.8835 36.844 55.8161 36.6975C55.5843 36.1912 55.8767 35.7552 56.1158 35.4446C56.1532 35.3958 56.1936 35.3483 56.2362 35.3012ZM42.2749 66.838C37.7786 66.5197 33.7346 64.5347 30.7364 61.4869C27.4568 58.1535 25.4277 53.5473 25.4277 48.4597C25.4277 47.9428 25.4494 47.4309 25.4902 46.9246C25.5988 46.4679 25.7093 46.0118 25.8075 45.5521C25.952 44.8728 25.9271 44.6105 26.6929 44.6375C27.0106 44.6487 27.2916 44.5721 27.5773 44.5018C27.2739 45.7706 27.1133 47.0964 27.1133 48.4597C27.1133 53.074 28.9536 57.2523 31.928 60.2755C34.9023 63.2993 39.0124 65.1699 43.5517 65.1699H43.579L43.5676 65.3484C43.4311 65.5598 43.343 65.8069 43.0682 66.025C42.8138 66.2271 42.4025 66.3114 42.3099 66.5513C42.277 66.6367 42.2664 66.7389 42.2749 66.838ZM27.8445 39.2635C28.2921 38.4756 28.7947 37.7248 29.3476 37.0162L29.4199 37.1889C29.6241 37.6857 29.6542 38.232 29.865 38.7451C29.8999 38.8311 29.9531 38.9091 30.0087 38.9863C29.4756 39.7723 29.0075 40.6063 28.611 41.4819L28.4075 40.9049C28.2133 40.3635 28.0291 39.813 27.8445 39.2635ZM43.5517 26.9196C48.2711 26.9196 52.6304 28.4886 56.152 31.1405C56.205 31.2831 56.2282 31.4043 56.0727 31.6763C55.932 31.9025 55.8158 32.1417 55.7239 32.3926C55.6582 32.596 55.6464 32.7533 55.6413 32.9006C52.3178 30.229 48.1179 28.633 43.5517 28.633C38.233 28.633 33.411 30.7979 29.8933 34.306C29.7811 33.7098 29.6746 33.116 29.5432 32.569C29.5253 32.4949 29.5059 32.4217 29.4862 32.349C33.2278 28.9713 38.1542 26.9196 43.5517 26.9196ZM58.6917 33.3897C59.4586 34.1861 60.1653 35.0424 60.8044 35.9513C60.6717 36.7683 60.4896 37.5694 60.3544 38.3866C59.5155 36.9438 58.502 35.6181 57.3431 34.4401L57.2854 34.3822C57.9462 34.2736 58.183 33.6318 58.6917 33.3897ZM62.1702 58.7522C61.1935 60.5737 59.9663 62.236 58.5348 63.6912C54.7008 67.5888 49.403 70 43.5517 70C37.7007 70 32.4022 67.5888 28.5679 63.6912C27.013 62.1106 25.6983 60.2846 24.6849 58.276C24.9566 57.3605 25.2134 56.4408 25.3106 55.496C26.2983 58.1415 27.8276 60.5158 29.7596 62.4798C33.2158 65.9931 37.9649 68.1941 43.2188 68.2833L43.1981 68.3564C43.147 68.5174 43.062 68.6624 43.0502 68.7703C43.0215 69.0251 43.177 69.2932 43.3827 69.3345C43.6664 69.3908 44.0645 69.2636 44.3999 69.2024C44.7424 69.1407 45.0599 69.0619 45.306 68.9766C45.3382 68.9031 45.3948 68.8539 45.436 68.7886C45.4231 68.5655 45.3838 68.3765 45.3265 68.2057C50.0043 67.7768 54.206 65.6689 57.3431 62.4798C59.3061 60.4846 60.8525 58.0653 61.8385 55.3688C61.9118 56.4991 62.0109 57.6279 62.1702 58.7522ZM26.507 35.6606C26.919 35.0943 27.3573 34.5498 27.8208 34.028C28.0944 34.5751 28.3896 35.1049 28.6733 35.6386C28.166 36.247 27.6932 36.8869 27.2595 37.5551C27.0265 36.9033 26.7808 36.2663 26.507 35.6606ZM29.8726 66.7119C30.2414 66.9982 30.3122 67.5354 30.0306 67.9102C29.7492 68.2848 29.2208 68.3568 28.852 68.0708C26.9287 66.5813 25.2593 64.8267 23.8776 62.8778C23.8631 62.7047 23.8523 62.5317 23.8523 62.3582C23.8527 61.6197 23.9736 60.8971 24.1468 60.1813C25.607 62.679 27.539 64.9043 29.8726 66.7119ZM22.388 60.5021C22.2252 60.2074 22.069 59.9088 21.9186 59.6073C21.9581 59.3431 21.9926 59.0803 21.9152 58.852C21.7701 58.4258 21.5149 58.0643 21.4293 57.6142C21.3353 57.1241 21.3252 56.6213 21.2574 56.127C21.1074 55.0316 21.3746 53.8129 21.018 52.7634C20.8591 52.2954 20.5759 51.9062 20.279 51.5212C20.0147 51.1786 20.1457 50.8663 20.2072 50.4706C20.3713 49.4236 20.4542 48.3647 20.6126 47.316C20.6842 46.8414 20.7605 46.3677 20.8351 45.8939C20.8987 45.4887 20.796 45.371 21.1967 45.2793C21.0546 46.3189 20.9813 47.3807 20.9813 48.4597C20.9813 50.785 21.3273 53.0655 21.986 55.2339C21.9885 55.8467 22.0676 56.4566 22.1447 57.0647C22.2894 58.2044 22.3862 59.3525 22.388 60.5021ZM24.9462 32.6406C25.4076 32.0803 25.8926 31.541 26.4003 31.0249C26.5188 30.9044 26.639 30.7853 26.7593 30.6676C26.8336 31.0094 26.8985 31.3576 26.9498 31.7153C26.9978 32.0469 27.0894 32.3445 27.2031 32.641C26.7096 33.168 26.2406 33.7188 25.7978 34.2911L25.7889 34.2761C25.5563 33.8896 25.2984 33.493 25.1222 33.0964C25.0603 32.9568 25.0009 32.8034 24.9462 32.6406ZM28.5313 29.0986C32.6621 25.7827 37.8802 23.8029 43.5517 23.8029C48.7836 23.8029 53.6299 25.4872 57.5923 28.3516C57.5661 28.3892 57.5412 28.417 57.5176 28.4311C56.9539 28.7662 57.3621 29.2977 56.8253 29.6975C56.7794 29.7317 56.7314 29.7646 56.6833 29.7977C52.9835 27.1033 48.4498 25.5163 43.5517 25.5163C38.008 25.5163 32.9306 27.5484 29.002 30.9191C28.898 30.6201 28.8009 30.319 28.7286 30.0084C28.6585 29.7089 28.5953 29.4049 28.5313 29.0986ZM60.3499 30.6736C60.4682 30.7898 60.5867 30.9065 60.7029 31.0249C60.821 31.1447 60.9381 31.2665 61.0536 31.3889C61.1379 32.1772 60.9966 33.1079 60.9803 33.8808C60.617 33.4322 60.2369 32.9983 59.8416 32.5795C59.8889 32.2984 59.864 31.9633 59.8799 31.6236C59.8927 31.3526 60.1066 30.9054 60.3499 30.6736ZM67.6921 50.862C67.4965 52.8877 67.0562 54.8671 66.3905 56.7595C66.2758 55.5379 66.1856 54.3149 66.1503 53.0877C66.0909 51.0346 66.3495 49.0248 66.2409 46.9896C66.2202 46.5999 66.3183 46.1583 66.3411 45.7368C66.4085 44.4636 66.3989 43.1194 66.2409 41.8777C66.2382 41.8289 66.2357 41.7812 66.2745 41.7753C66.5762 41.7513 66.5063 42.0109 66.5405 42.4188C66.6711 43.9598 66.827 45.6124 67.0739 46.9896C67.2955 48.2267 67.5812 49.5526 67.6921 50.862ZM62.9704 63.232C61.7324 64.9141 60.2766 66.4448 58.6243 67.7768C58.2606 68.0704 57.7309 68.009 57.4423 67.6394C57.1536 67.2697 57.2138 66.7312 57.5775 66.4378C59.5786 64.8246 61.2706 62.8992 62.6072 60.7596C62.8082 61.5832 62.9901 62.425 62.9704 63.232ZM19.1631 61.7465C18.2571 59.9821 17.5403 58.1251 17.0224 56.2092C16.3705 53.798 16.0356 51.3057 16.0356 48.7986C16.0356 47.5149 16.121 46.2512 16.2858 45.0137C16.4199 45.1087 16.3646 45.3067 16.411 45.5706C16.4611 45.8559 16.5235 46.1394 16.5906 46.4208C16.7034 46.8955 16.8281 47.3659 16.931 47.8426C17.156 48.889 17.0001 49.8596 17.0953 50.8975C17.1388 51.37 17.3586 51.8032 17.3921 52.2786C17.4249 52.7638 17.3898 53.1889 17.5584 53.6571C17.8529 54.4778 18.2144 55.2951 18.711 56.0108C19.0041 57.0552 19.3624 58.0825 19.7838 59.086C19.5428 59.7949 19.4407 60.6641 19.2719 61.3319L19.1631 61.7465ZM25.4999 27.6884C25.622 27.5805 25.7446 27.4737 25.8686 27.368C26.0325 27.9792 26.2125 28.5772 26.3819 29.1812C26.0069 29.5205 25.6415 29.8708 25.2867 30.2316C25.0607 30.4611 24.8387 30.6954 24.6213 30.9332C24.6166 30.7965 24.6192 30.6633 24.6289 30.5358C24.6787 29.876 24.95 29.3157 25.172 28.7276C25.3015 28.384 25.3941 28.0315 25.4999 27.6884ZM28.1829 25.5941C32.5712 22.5849 37.8595 20.8275 43.5517 20.8275C49.0811 20.8275 54.2301 22.4865 58.543 25.3401C58.4591 25.9047 58.3899 26.4094 58.1477 26.947C58.1311 26.9833 58.1118 27.0327 58.0903 27.0921C53.9494 24.2204 48.9433 22.5409 43.5517 22.5409C37.8052 22.5409 32.4969 24.4483 28.2068 27.6743C28.1749 27.5204 28.1491 27.3685 28.1356 27.221C28.0868 26.6899 28.1664 26.1378 28.1829 25.5941ZM15.2176 55.8459C15.3229 56.3059 15.0415 56.7661 14.5889 56.8732C14.1364 56.9801 13.6837 56.6941 13.5783 56.2339C13.3121 55.0714 13.111 53.893 12.9776 52.7086C12.8427 51.5169 12.7748 50.3244 12.7748 49.138C12.7748 46.9883 12.9884 44.8894 13.3947 42.8616C13.4414 42.9139 13.498 42.9554 13.588 42.9631C13.7857 42.7185 13.6598 42.5081 13.514 42.2941C14.2029 39.1567 15.355 36.1972 16.8934 33.4934C16.816 34.0439 16.6958 34.5698 16.5522 35.0802C16.3663 35.7368 16.2139 36.4045 16.0832 37.0888C15.8278 38.4208 15.3921 39.7055 15.0696 41.0051C14.7527 42.285 14.2619 43.4908 13.7853 44.6456C13.9091 44.6456 14.0323 44.6456 14.1565 44.6456C14.2535 44.9568 14.4444 44.7549 14.7734 44.7896C14.5678 46.2087 14.4603 47.6604 14.4603 49.138C14.4603 50.2739 14.5236 51.4017 14.6496 52.5142C14.7759 53.6326 14.966 54.7463 15.2176 55.8459ZM27.5815 22.3884C32.237 19.5103 37.7042 17.8521 43.5517 17.8521C49.2302 17.8521 54.5502 19.4165 59.1172 22.1429C58.9381 22.698 58.8282 23.3209 58.7427 23.9133C54.321 21.156 49.1191 19.5655 43.5517 19.5655C37.9022 19.5655 32.6281 21.2027 28.1646 24.0359C28.1356 23.5894 28.0644 23.174 27.8888 22.8279C27.7999 22.6523 27.697 22.5104 27.5815 22.3884ZM72.0897 37.4026C72.2927 37.9124 72.4824 38.4285 72.6593 38.9512C72.573 39.1075 72.4979 39.2815 72.4689 39.5077C72.359 38.8103 72.2194 38.1125 72.0897 37.4026ZM73.1788 40.6393C73.3657 41.3126 73.5303 41.9955 73.6727 42.6869L73.6678 42.7241C73.6534 42.8647 73.7158 43.0081 73.702 43.1302C73.6803 43.313 73.5607 43.4518 73.5683 43.6383C73.5784 43.8934 73.7667 44.0828 73.8347 44.315C73.8759 44.2862 73.9135 44.2521 73.9484 44.2131C74.1983 45.8172 74.3286 47.4625 74.3286 49.138C74.3286 50.3372 74.2595 51.5422 74.122 52.7447C73.9855 53.9414 73.7808 55.1296 73.5092 56.302C73.4041 56.7622 72.9514 57.0482 72.4989 56.9411C72.1022 56.8473 71.8372 56.4829 71.8482 56.0845L71.882 55.8639C72.1339 54.7691 72.3235 53.6625 72.4499 52.5501C72.5785 51.4262 72.643 50.2862 72.643 49.138C72.643 47.6048 72.5283 46.0987 72.3067 44.6287C72.1917 43.2746 71.9995 41.9551 71.8702 40.5905C72.0487 40.5575 72.2915 40.4114 72.5027 40.5228C72.49 41.029 72.3497 41.881 72.8021 41.843C73.1836 41.8121 73.0799 41.0736 73.1788 40.6393ZM11.2001 49.4767C11.2001 49.9496 10.8226 50.3333 10.3574 50.3333C9.89203 50.3333 9.51455 49.9496 9.51455 49.4767C9.51455 44.1094 10.7169 39.0278 12.8625 34.4946C12.857 34.7918 12.8456 35.081 12.8224 35.356C12.7146 36.6286 12.388 37.7398 12.1558 38.8964C12.0745 39.2998 11.8558 39.6883 11.8592 40.001C11.8626 40.3193 12.0521 40.4552 12.1558 40.7283C12.1972 40.8376 12.2346 40.9615 12.2619 41.0908C11.5692 43.768 11.2001 46.5785 11.2001 49.4767ZM15.2062 30.3169C15.6488 29.6417 16.114 28.9829 16.6006 28.3425C16.6259 28.7768 16.647 29.2134 16.7001 29.682C16.74 30.0349 16.8177 30.3848 16.8727 30.7357L16.8893 30.8458C15.6672 32.6501 14.6175 34.5842 13.7646 36.6234C13.8206 36.2316 13.9222 35.8247 14.0078 35.5068C14.1641 34.9272 14.3441 34.3446 14.5021 33.8242C14.7613 32.9696 15.0959 32.2225 15.1936 31.2887C15.2261 30.9795 15.1974 30.63 15.2062 30.3169ZM25.3554 20.2316L25.52 20.1259C25.4215 20.3146 25.3199 20.5036 25.2407 20.6972C25.1847 20.635 25.258 20.5065 25.2529 20.4397C25.2853 20.3673 25.3191 20.298 25.3554 20.2316ZM25.6212 20.062C30.8283 16.7753 36.9726 14.8767 43.5517 14.8767C50.025 14.8767 56.0761 16.7139 61.2285 19.9031C60.6153 20.1566 60.1017 20.5134 59.7126 20.9817C54.9577 18.1887 49.4379 16.5902 43.5517 16.5902C37.2435 16.5902 31.3567 18.4256 26.3809 21.5994C25.9886 21.4336 25.5303 21.3359 25.1215 21.2091C25.1235 21.201 25.1249 21.1937 25.1266 21.1855C25.2707 20.8462 25.3949 20.5563 25.5445 20.2042L25.6212 20.062ZM74.3204 34.665C76.4161 39.155 77.5888 44.1766 77.5888 49.4767C77.5888 49.9496 77.2111 50.3333 76.7459 50.3333C76.2807 50.3333 75.9032 49.9496 75.9032 49.4767C75.9032 46.2863 75.4553 43.2022 74.6217 40.2849C74.5194 39.5928 74.3743 38.8912 74.3345 38.1527C74.2678 36.9423 74.2644 35.8254 74.3204 34.665ZM71.8609 33.5467L71.7141 33.2815C71.7196 33.168 71.7268 33.0535 71.7362 32.9388C71.7963 33.0967 71.8267 33.3166 71.8609 33.5467ZM8.89517 41.4844C8.78978 41.9445 8.33711 42.2306 7.88463 42.1235C7.43215 42.0165 7.15056 41.5564 7.25594 41.0964C8.56478 35.4682 11.0702 30.3827 14.4596 26.0923C14.3857 26.3828 14.2384 26.6895 14.1313 26.9954C14.0158 27.3278 13.9 27.669 13.7853 27.9993C13.5624 28.6457 13.2064 29.2756 13.045 29.9579C12.9392 30.4045 12.8881 30.9065 12.8653 31.4352C11.0875 34.5027 9.73405 37.8765 8.89517 41.4844ZM27.3869 15.6482C32.3106 13.237 37.8069 11.9013 43.5517 11.9013C50.4443 11.9013 56.9799 13.8225 62.5992 17.2186C62.6607 17.5188 62.6261 17.8041 62.7108 18.0422C62.812 18.3289 63.0851 18.4676 63.2102 18.7191C63.3295 18.9595 63.3312 19.2019 63.477 19.4302C63.3071 19.4405 63.1411 19.4546 62.978 19.4735C57.3462 15.7455 50.6482 13.6148 43.5517 13.6148C37.6561 13.6148 32.0376 15.0844 27.0776 17.7168C27.2301 17.3568 27.3839 16.9774 27.3825 16.5757C27.4328 16.3888 27.483 16.1686 27.4965 15.9571C27.472 15.904 27.4349 16.0225 27.4188 15.9814C27.4194 15.8646 27.4053 15.7554 27.3869 15.6482ZM73.9522 27.8478C76.6356 31.6829 78.6464 36.0735 79.7914 40.8633C79.9006 41.3217 79.6232 41.7834 79.1724 41.8944C78.7214 42.0053 78.2672 41.7235 78.158 41.2651C77.3843 38.0276 76.1953 34.9816 74.6573 32.1789C74.8703 31.8846 75.0911 31.7753 75.1333 31.4493C75.2273 30.7284 74.3988 30.4667 74.3345 29.8247C74.3138 29.6207 74.4154 29.3873 74.3677 29.2146C74.309 29.0034 74.0166 28.8804 73.9682 28.6737C73.9198 28.4685 74.0242 28.2385 74.001 28.0298C73.9944 27.9686 73.9762 27.9078 73.9522 27.8478ZM26.9346 17.7925L26.7345 17.9009C26.8125 17.7295 26.9373 17.5894 27.0307 17.446C27.0493 17.5728 27.0043 17.6902 26.9346 17.7925ZM8.59801 32.8616C8.39654 33.2867 7.89356 33.4648 7.47544 33.26C7.05752 33.0552 6.88207 32.5437 7.08353 32.1189C9.77374 26.4972 13.6222 21.6893 18.2524 17.933C18.1998 18.2719 18.1971 18.5974 18.2102 18.8942C18.2023 18.9238 18.1943 18.9535 18.1859 18.9817C18.1303 19.0639 18.0578 19.1152 17.9976 19.1882C18.0063 19.2173 18.0202 19.2434 18.0337 19.27C17.9015 19.5279 17.6233 19.6109 17.5214 19.8688C17.7471 19.8118 17.8947 19.6134 18.0564 19.4426C18.2437 19.3218 18.3527 19.0614 18.5015 18.8724C18.1632 19.7545 17.5003 20.055 16.9487 20.5563C16.9891 20.6154 17.0755 20.5468 17.1053 20.5893C17.0161 20.6574 16.9284 20.7295 16.8399 20.7988C16.7421 20.8408 16.639 20.8852 16.5273 20.9192C16.2689 20.9993 15.9921 21.052 15.8109 21.1705C15.127 21.6177 14.9168 22.3977 14.7987 23.4049C14.7911 23.467 14.782 23.5282 14.771 23.5894C12.3261 26.3262 10.2372 29.4361 8.59801 32.8616ZM18.3274 17.8722L18.5133 17.7232C18.4218 17.9977 18.3422 18.2895 18.2786 18.5232C18.2448 18.3571 18.2765 18.136 18.3181 17.9181L18.3274 17.8722ZM18.6342 17.6269L18.71 17.5672C18.7068 17.6016 18.7045 17.635 18.71 17.6645C18.7227 17.6269 18.7345 17.584 18.7467 17.5381L18.9675 17.3663C18.8575 17.8739 18.6637 18.4557 18.3599 18.7002C18.4041 18.331 18.5036 17.9506 18.6342 17.6269ZM25.858 13.0579C31.2745 10.3871 37.3033 8.92595 43.5517 8.92595C50.1446 8.92595 56.495 10.5529 62.1395 13.5129C62.0237 13.6777 62.0818 14.0514 61.7808 13.9939C61.8011 14.0483 61.7846 14.0788 61.7535 14.0993C61.6788 14.1228 61.6338 13.9927 61.5934 14.0338C61.5993 14.1491 61.6826 14.1463 61.7138 14.2243C61.7219 14.2938 61.6574 14.3152 61.5886 14.3336C61.6771 14.448 61.826 14.4689 61.9418 14.5413C61.9604 14.6818 61.7387 14.6625 61.7863 14.8233C61.8651 14.8096 61.9169 14.758 61.9902 14.7798C62.1032 14.9698 61.8714 15.0366 61.7856 15.1389C61.8154 15.1968 61.9291 15.1265 61.9587 15.1852L61.8989 15.3166C56.3598 12.3019 50.081 10.6394 43.5517 10.6394C37.7516 10.6394 32.1494 11.9512 27.0876 14.3571C27.0635 14.2813 27.0383 14.2071 27.0123 14.1326C26.7573 13.7501 26.4779 13.3805 25.9478 13.15L25.858 13.0579ZM68.4279 17.5939C69.3207 18.299 70.1862 19.0428 71.0207 19.8234C70.4336 19.6979 69.7775 19.6414 69.2053 19.4982C68.9491 18.9255 68.5967 18.4491 68.2935 17.9245C68.3713 17.9336 68.4459 17.9484 68.5078 17.9888C68.4611 17.877 68.3949 17.7046 68.4279 17.5939ZM73.5949 22.4595C76.0857 25.2515 78.2217 28.4162 79.9131 31.8975C80.1184 32.3206 79.9477 32.8335 79.5314 33.0419C79.115 33.2506 78.6105 33.0771 78.4055 32.654C77.0915 29.9492 75.4975 27.4438 73.6682 25.1662C73.7238 24.1519 73.7418 23.2383 73.5949 22.4595ZM10.7968 23.5504C10.5044 23.9164 9.97463 23.9716 9.61481 23.6743C9.25499 23.3771 9.20068 22.8386 9.49309 22.4728C13.6533 17.2468 18.8627 13.1162 24.6825 10.2929C30.5043 7.46924 36.9408 5.95058 43.5517 5.95058C50.2362 5.95058 56.7397 7.50379 62.6127 10.3881C63.4816 10.8146 64.3366 11.2708 65.176 11.7548C65.1498 11.7604 65.1242 11.7651 65.0997 11.7674C64.9943 11.7755 64.8933 11.7043 64.8301 11.724C64.7748 11.7421 64.7621 11.8444 64.6801 11.8722C64.5975 11.9002 64.5208 11.8212 64.4289 11.8419C64.3113 11.8683 64.2899 12.0067 64.1507 12.0004C64.1002 11.9452 63.9581 11.9228 63.8966 11.954C63.8271 11.9849 63.8814 12.044 63.8279 12.1015C63.7787 12.1557 63.6838 12.1473 63.619 12.1953C63.5368 12.2565 63.5245 12.376 63.3855 12.4103C63.2907 12.4343 63.1933 12.364 63.0934 12.4223C63.0534 12.4395 63.0577 12.4852 63.0488 12.5235C62.6628 12.3187 62.2739 12.1198 61.882 11.9276C56.2392 9.15643 49.985 7.664 43.5517 7.664C37.1938 7.664 31.0045 9.12439 25.4063 11.8392C25.0738 12.0008 24.743 12.1665 24.4147 12.3366L24.4026 12.3349C24.1631 12.2252 23.8434 12.1824 23.5821 12.1057C22.9732 12.0038 22.5549 12.2441 22.0804 12.3816C21.9408 12.3953 21.8474 12.4916 21.7116 12.5123C21.0062 12.8597 20.4079 13.5613 20.0724 14.4193C20.1723 14.2834 20.2465 14.1253 20.289 13.984C20.3219 14.0041 20.3202 13.9626 20.3426 13.9639C20.4823 13.7373 20.6232 13.5115 20.7996 13.3502C20.7381 13.4324 20.6944 13.5463 20.6211 13.6063C20.4145 13.9018 20.2579 14.2855 20.0354 14.5507C20.0572 14.5225 20.0817 14.3996 20.0627 14.4519C20.0614 14.4557 20.0606 14.4594 20.0599 14.4629C20.0285 14.5353 19.9843 14.5781 19.9793 14.6656C19.8364 14.8233 19.7171 15.0246 19.6106 15.2491C16.3314 17.5497 13.3567 20.3349 10.7968 23.5504ZM67.6555 13.2975C71.4943 15.8679 74.9542 19.0649 77.877 22.8098C78.1656 23.1796 78.1055 23.718 77.7416 24.0114C77.378 24.3049 76.8485 24.2435 76.5596 23.8739C74.1545 20.7914 71.3716 18.0953 68.306 15.8333C68.2794 15.6496 68.2686 15.4747 68.3768 15.3433C68.3271 15.1778 68.1712 15.1385 68.092 14.9885C68.0409 14.8912 68.0751 14.7679 68.0398 14.6505C67.9959 14.5075 67.8854 14.4305 67.8712 14.3044C67.8622 14.2278 67.9217 14.1396 67.904 14.0651C67.8691 13.9207 67.5934 13.814 67.7502 13.6323C67.6727 13.5395 67.5193 13.3976 67.6555 13.2975ZM16.0411 14.1263C15.6723 14.4123 15.1439 14.3405 14.8623 13.9657C14.5809 13.5908 14.6517 13.0537 15.0205 12.7674C19.1188 9.59245 23.6757 7.14459 28.4964 5.49061C33.3191 3.83586 38.4023 2.97539 43.5517 2.97539C48.6964 2.97539 53.7763 3.83509 58.5956 5.48752C63.4141 7.13976 67.9693 9.58493 72.066 12.7551C72.4347 13.0413 72.5055 13.5785 72.2241 13.9531C71.9426 14.328 71.4141 14.4 71.0454 14.1139C67.0946 11.0567 62.7042 8.69936 58.062 7.10773C53.4214 5.51629 48.5223 4.68881 43.5517 4.68881C38.5763 4.68881 33.6734 5.51724 29.0297 7.11061C24.3857 8.70418 19.9936 11.0644 16.0411 14.1263ZM27.4841 4.48576C27.0464 4.64076 26.5668 4.40507 26.4143 3.96017C26.2617 3.51506 26.4935 3.02751 26.9314 2.87251C29.6054 1.92247 32.3475 1.20328 35.126 0.723821C37.9098 0.243204 40.7284 0 43.5517 0C46.3968 0 49.2357 0.246287 52.0372 0.732887C54.8318 1.21872 57.5888 1.94639 60.276 2.90936C60.7139 3.06609 60.944 3.55521 60.7898 4.00031C60.6355 4.44542 60.1543 4.67935 59.7164 4.52262C57.1219 3.59265 54.4572 2.88969 51.7539 2.41969C49.0538 1.95065 46.3097 1.71342 43.5517 1.71342C40.8102 1.71342 38.0837 1.94776 35.4024 2.41081C32.7132 2.87464 30.0634 3.56912 27.4841 4.48576Z" fill="#F3F7FF"/>
<path d="M48 82.506V87.8221H44.8598L44.7812 86.2412C44.3529 86.8274 43.8355 87.2558 43.2297 87.5289C42.6239 87.8019 41.8909 87.9408 41.0347 87.9408C39.963 87.9408 39.1115 87.6454 38.4767 87.0612C37.842 86.4768 37.5211 85.6943 37.5211 84.7194C37.5211 83.5928 37.9842 82.7565 38.9082 82.2128C39.8294 81.6704 41.2538 81.3993 43.1716 81.3993H44.5893V81.2643C44.5893 80.7076 44.37 80.2827 43.9283 79.9862C43.4866 79.6898 42.8428 79.5416 42.0005 79.5416C41.5827 79.5416 41.113 79.6107 40.5827 79.7524C40.0557 79.8932 39.4868 80.1015 38.8775 80.3717L38.8157 78.0725C39.4049 77.8354 40.0418 77.6569 40.7266 77.5421C41.4142 77.427 42.1681 77.3678 42.9901 77.3678C44.7195 77.3678 45.9843 77.7821 46.7913 78.6093C47.5965 79.4349 48 80.734 48 82.506ZM43.9762 83.1977C42.9121 83.1977 42.1432 83.3088 41.675 83.5303C41.2057 83.7526 40.9731 84.1102 40.9731 84.5974C40.9731 84.9532 41.1011 85.2394 41.3497 85.4572C41.6003 85.6767 41.9354 85.7866 42.3497 85.7866C43.0071 85.7866 43.5428 85.5729 43.9627 85.1474C44.381 84.7239 44.5893 84.1692 44.5893 83.4874V83.1977H43.9762ZM33.056 84.9074V87.8221H31.2479C30.2533 87.8221 29.4397 87.0396 29.4397 86.0829V81.3174V77.664H32.6655V79.6009C33.0321 78.8464 33.4805 78.2899 34.0114 77.9276C34.5388 77.5685 35.1653 77.3873 35.8879 77.3873C36.0728 77.3873 36.4153 77.4235 36.9084 77.4961L36.9802 77.506L36.7887 80.5065C36.6414 80.4473 36.4769 80.4044 36.2987 80.3749C36.1172 80.3453 35.9051 80.3321 35.6655 80.3321C34.8025 80.3321 34.1516 80.5988 33.7133 81.1325C33.2751 81.6661 33.056 82.4533 33.056 83.4874V84.9074ZM25.6827 85.5454C25.8022 85.5675 26.0077 85.5926 26.2397 85.605C26.4716 85.6178 26.7299 85.6178 26.988 85.6178L25.7493 87.8221C24.4096 87.8221 23.1709 88.1051 22.2039 87.081C21.5636 86.4025 21.2452 85.299 21.2452 83.7709V80.1738H19.211V77.664H21.4472V75.3155L24.8613 74.2055V77.664H27.4501V80.1738H24.8613V83.6753C24.8613 84.4262 24.9879 84.9566 25.2416 85.2663C25.3702 85.4199 25.4897 85.5094 25.6827 85.5454ZM0 77.664H3.61607V82.7827C3.61607 83.5799 3.76337 84.1726 4.05777 84.5646C4.35256 84.9565 4.80102 85.1543 5.40373 85.1543C6.08521 85.1543 6.6022 84.8873 6.95144 84.3538C7.30414 83.8201 7.47885 83.0395 7.47885 82.0119V77.664H11.0951V87.8221H7.8111V85.9184C7.39333 86.5967 6.86244 87.1107 6.20857 87.4663C5.55432 87.8221 4.81473 88 3.98596 88C2.68806 88 1.69848 87.6179 1.02048 86.8538C0.339001 86.0898 0 84.9796 0 83.5137V77.664ZM13.8689 73H17.4852V87.8221H15.677C14.6824 87.8221 13.8689 87.0396 13.8689 86.0829V73Z" fill="#F3F7FF"/>
<path d="M82.7719 81.6584C82.6991 80.981 82.4681 80.4477 82.0853 80.0614C81.6992 79.6722 81.2129 79.479 80.6195 79.479C80.0333 79.479 79.5538 79.6722 79.1745 80.0614C78.7984 80.4477 78.5675 80.981 78.4881 81.6584H82.7719ZM86 82.8562V83.7003H78.5295C78.6021 84.358 78.9021 84.8653 79.4298 85.2252C79.9539 85.5819 80.6609 85.7618 81.5508 85.7618C82.082 85.7618 82.6474 85.6899 83.2408 85.5491C83.8303 85.4082 84.441 85.1988 85.0687 84.9175V87.3881C84.4755 87.591 83.8581 87.7447 83.2132 87.8462C82.5718 87.9476 81.8992 88 81.1989 88C79.2573 88 77.7398 87.5156 76.65 86.5438C75.5567 85.572 75.0117 84.2237 75.0117 82.4961C75.0117 80.9253 75.5153 79.6753 76.5222 78.7493C77.5292 77.8232 78.8918 77.3585 80.6022 77.3585C82.3268 77.3585 83.6583 77.8363 84.5962 78.7885C85.5308 79.7408 86 81.0987 86 82.8562ZM73.0458 81.8154V87.7252H69.4243V82.5352C69.4243 81.7434 69.2763 81.1544 68.9794 80.7652C68.6829 80.3789 68.2313 80.1857 67.6242 80.1857C66.9929 80.1857 66.4858 80.4282 66.1065 80.9157C65.7237 81.4 65.5341 82.0545 65.5341 82.8722V87.7252H61.892V77.6334H65.1997V79.4398C65.6204 78.7626 66.1584 78.2453 66.817 77.8922C67.4792 77.5354 68.2245 77.3585 69.0521 77.3585C70.3521 77.3585 71.3457 77.7382 72.0248 78.4941C72.7044 79.2533 73.0458 80.3591 73.0458 81.8154ZM55.4565 73H59.0986V75.8077H55.4565V73ZM55.4565 77.6334H59.0986V87.7252H55.4565V77.6334ZM49 73H52.6423V87.7252H50.821C49.8193 87.7252 49 86.9478 49 85.9972V73Z" fill="#F3F7FF"/>
</svg>
