<svg width="24" height="24" viewBox="0 0 24 24" fill="none" xmlns="http://www.w3.org/2000/svg">
<g opacity="0.64">
<rect x="0.5" y="0.5" width="23" height="23" rx="11.5" stroke="#F3F7FF"/>
<path d="M18 9.06544C17.5591 9.24615 17.0843 9.36836 16.5864 9.42297C17.0949 9.14215 17.4851 8.69686 17.669 8.16641C17.1928 8.42644 16.6667 8.6156 16.1046 8.71701C15.6566 8.27562 15.0164 8 14.3078 8C12.9491 8 11.8468 9.01733 11.8468 10.2719C11.8468 10.4501 11.8679 10.623 11.9102 10.7894C9.86406 10.6945 8.05036 9.7909 6.83536 8.41473C6.62335 8.75146 6.5022 9.14215 6.5022 9.55818C6.5022 10.346 6.93678 11.0416 7.59746 11.4492C7.19458 11.4381 6.81423 11.3348 6.48177 11.1658V11.1937C6.48177 12.2949 7.33052 13.2134 8.45747 13.4215C8.2511 13.4748 8.03346 13.5014 7.80877 13.5014C7.65029 13.5014 7.49533 13.4878 7.34531 13.4611C7.65874 14.3634 8.56735 15.0206 9.64501 15.0381C8.80261 15.6479 7.74045 16.0113 6.58743 16.0113C6.3888 16.0113 6.19229 16.0009 6 15.9801C7.08963 16.6236 8.38422 17 9.7739 17C14.3029 17 16.7787 13.5385 16.7787 10.5359C16.7787 10.4371 16.7765 10.3382 16.7723 10.2414C17.2534 9.92091 17.6711 9.52113 18 9.06544Z" fill="#F3F7FF"/>
</g>
</svg>
