<svg width="24" height="24" viewBox="0 0 24 24" fill="none" xmlns="http://www.w3.org/2000/svg">
<g opacity="0.64">
<rect x="0.5" y="0.5" width="23" height="23" rx="11.5" stroke="#F3F7FF"/>
<path fill-rule="evenodd" clip-rule="evenodd" d="M17.403 8.52219C17.7626 8.82419 17.88 9.50997 17.88 9.50997C17.88 9.50997 18 10.3155 18 11.1207V11.8759C18 12.6814 17.88 13.4866 17.88 13.4866C17.88 13.4866 17.7626 14.1724 17.403 14.4744C16.9918 14.8316 16.5359 14.8686 16.2783 14.8894C16.2499 14.8917 16.224 14.8938 16.2008 14.8961C14.5215 14.9969 12 15 12 15C12 15 8.88 14.9764 7.92 14.8999C7.87452 14.8928 7.81938 14.8873 7.75694 14.8811C7.45285 14.8509 6.97557 14.8034 6.59662 14.4744C6.237 14.1724 6.12 13.4866 6.12 13.4866C6.12 13.4866 6 12.6814 6 11.8759V11.1207C6 10.3155 6.12 9.50997 6.12 9.50997C6.12 9.50997 6.237 8.82419 6.59662 8.52219C7.0087 8.16444 7.46503 8.12792 7.72274 8.1073C7.75068 8.10507 7.77629 8.10302 7.79925 8.10077C9.4785 8 11.9974 8 11.9974 8H12.0026C12.0026 8 14.5215 8 16.2008 8.10077C16.2237 8.10302 16.2493 8.10507 16.2773 8.10731C16.5348 8.12794 16.9913 8.1645 17.403 8.52219ZM11 10L11.0003 13L14 11.5052L11 10Z" fill="#F3F7FF"/>
</g>
</svg>
