<svg width="1136" height="541" viewBox="0 0 1136 541" fill="none" xmlns="http://www.w3.org/2000/svg">
<g clip-path="url(#clip0_1_542)">
<g clip-path="url(#clip1_1_542)">
<path d="M726.981 743.522C522.838 798.222 326.366 804.177 173.745 769.601C21.1072 735.022 -87.576 659.93 -116.331 552.616C-145.086 445.301 -88.5089 325.929 26.3894 219.663C141.275 113.409 314.403 20.3299 518.546 -34.37C722.688 -89.0698 919.161 -95.0248 1071.78 -60.4491C1224.42 -25.8695 1333.1 49.222 1361.86 156.536C1390.61 263.851 1334.04 383.224 1219.14 489.489C1104.25 595.743 931.124 688.822 726.981 743.522Z" stroke="#B2C5FD" stroke-width="0.666931"/>
<path d="M234.43 459.147C179.73 255.005 173.775 58.5318 208.351 -94.0889C242.93 -246.727 318.022 -355.41 425.336 -384.165C532.65 -412.919 652.023 -356.343 758.289 -241.444C864.543 -126.559 957.622 46.5692 1012.32 250.712C1067.02 454.854 1072.98 651.327 1038.4 803.948C1003.82 956.586 928.73 1065.27 821.415 1094.02C714.101 1122.78 594.728 1066.2 488.463 951.304C382.209 836.418 289.13 663.29 234.43 459.147Z" stroke="#B2C5FD" stroke-width="0.666931"/>
<path d="M970.751 556.369C865.079 739.398 730.362 882.536 597.994 966.007C465.612 1049.49 335.663 1073.24 239.448 1017.69C143.232 962.139 98.8288 837.724 104.933 681.338C111.037 524.969 167.64 336.732 273.312 153.702C378.984 -29.327 513.7 -172.465 646.068 -255.936C778.451 -339.415 908.399 -363.168 1004.61 -307.618C1100.83 -252.068 1145.23 -127.653 1139.13 28.7334C1133.03 185.103 1076.42 373.34 970.751 556.369Z" stroke="#B2C5FD" stroke-width="0.666931"/>
<path d="M421.842 703.883C238.812 598.211 95.6743 463.494 12.2039 331.126C-71.2758 198.744 -95.0287 68.7955 -39.4787 -27.42C16.0713 -123.635 140.486 -168.039 296.873 -161.935C453.242 -155.831 641.479 -99.2282 824.508 6.44383C1007.54 112.116 1150.68 246.832 1234.15 379.2C1317.63 511.583 1341.38 641.531 1285.83 737.747C1230.28 833.962 1105.86 878.366 949.477 872.261C793.108 866.158 604.871 809.555 421.842 703.883Z" stroke="#B2C5FD" stroke-width="0.666931"/>
<path d="M1028.53 401.729C1002.78 611.498 934.698 795.895 845.468 924.45C756.227 1053.02 645.89 1125.66 535.618 1112.12C425.346 1098.58 335.859 1001.4 280.373 855.065C224.893 708.742 203.447 513.352 229.203 303.584C254.959 93.8149 323.038 -90.5824 412.269 -219.138C501.51 -347.707 611.847 -420.347 722.119 -406.807C832.39 -393.267 921.877 -296.092 977.363 -149.753C1032.84 -3.4293 1054.29 191.96 1028.53 401.729Z" stroke="#B2C5FD" stroke-width="0.666931"/>
<path d="M576.482 761.666C366.713 735.909 182.316 667.831 53.7605 578.6C-74.809 489.359 -147.449 379.022 -133.909 268.75C-120.369 158.478 -23.1943 68.9916 123.145 13.5055C269.469 -41.9744 464.858 -63.4211 674.627 -37.6647C884.396 -11.9084 1068.79 56.1703 1197.35 145.401C1325.92 234.642 1398.56 344.979 1385.02 455.251C1371.48 565.523 1274.3 655.009 1127.96 710.495C981.64 765.975 786.25 787.422 576.482 761.666Z" stroke="#B2C5FD" stroke-width="0.666931"/>
<path d="M939.97 119.415C1067.16 288.202 1146.28 468.138 1171.4 622.597C1196.51 777.074 1167.6 905.973 1078.88 972.835C990.147 1039.7 858.272 1031.96 716.703 965.234C575.149 898.517 423.993 772.864 296.803 604.077C169.613 435.29 90.4911 255.354 65.3765 100.894C40.259 -53.5824 69.1692 -182.482 157.898 -249.343C246.626 -316.205 378.501 -308.466 520.07 -241.742C661.624 -175.025 812.78 -49.3716 939.97 119.415Z" stroke="#B2C5FD" stroke-width="0.666931"/>
<path d="M857.571 672.395C688.784 799.585 508.848 878.707 354.388 903.821C199.911 928.939 71.0124 900.029 4.15069 811.3C-62.711 722.572 -54.9718 590.697 11.7522 449.128C78.4689 307.574 204.122 156.418 372.909 29.2276C541.696 -97.9623 721.632 -177.084 876.091 -202.198C1030.57 -227.316 1159.47 -198.406 1226.33 -109.677C1293.19 -20.9488 1285.45 110.926 1218.73 252.495C1152.01 394.049 1026.36 545.205 857.571 672.395Z" stroke="#B2C5FD" stroke-width="0.666931"/>
<path d="M735.451 734.238C533.341 796.029 337.196 808.838 183.462 779.609C29.7101 750.378 -81.5276 679.125 -114.01 572.88C-146.493 466.634 -94.1164 345.36 17.0033 235.149C128.111 124.95 297.885 25.8856 499.994 -35.9054C702.103 -97.6964 898.249 -110.505 1051.98 -81.2763C1205.73 -52.0448 1316.97 19.208 1349.45 125.453C1381.94 231.699 1329.56 352.974 1218.44 463.184C1107.33 573.383 937.56 672.447 735.451 734.238Z" stroke="#B2C5FD" stroke-width="0.666931"/>
<path d="M243.713 467.617C181.922 265.508 169.114 69.3623 198.342 -84.3721C227.574 -238.124 298.827 -349.361 405.072 -381.844C511.318 -414.326 632.592 -361.95 742.803 -250.83C853.002 -139.723 952.066 30.051 1013.86 232.16C1075.65 434.27 1088.46 630.415 1059.23 784.149C1030 937.901 958.744 1049.14 852.498 1081.62C746.253 1114.1 624.978 1061.73 514.768 950.608C404.569 839.5 305.504 669.726 243.713 467.617Z" stroke="#B2C5FD" stroke-width="0.666931"/>
<path d="M970.133 543.419C870.913 730.025 741.274 877.777 611.9 965.817C482.512 1053.87 353.471 1082.14 255.376 1029.98C157.28 977.822 108.562 855.033 109.205 698.529C109.847 542.042 159.846 351.944 259.066 165.338C358.286 -21.2674 487.925 -169.02 617.3 -257.059C746.688 -345.108 875.728 -373.382 973.824 -321.223C1071.92 -269.065 1120.64 -146.275 1120 10.229C1119.35 166.716 1069.35 356.814 970.133 543.419Z" stroke="#B2C5FD" stroke-width="0.666931"/>
<path d="M434.532 702.3C247.927 603.08 100.174 473.441 12.1352 344.067C-75.9137 214.678 -104.187 85.6378 -52.029 -12.4577C0.129332 -110.553 122.919 -159.272 279.423 -158.629C435.91 -157.986 626.008 -107.987 812.613 -8.76726C999.219 90.4527 1146.97 220.092 1235.01 349.466C1323.06 478.854 1351.33 607.895 1299.17 705.99C1247.02 804.086 1124.23 852.804 967.723 852.161C811.236 851.519 621.138 801.52 434.532 702.3Z" stroke="#B2C5FD" stroke-width="0.666931"/>
<path d="M1023.34 389.994C1004.92 600.534 943.32 787.195 858.631 918.786C773.931 1050.39 666.196 1126.84 555.519 1117.15C444.842 1107.47 352.019 1013.48 291.459 869.165C230.906 724.867 202.654 530.345 221.074 319.805C239.493 109.265 301.095 -77.3957 385.785 -208.987C470.484 -340.592 578.219 -417.038 688.897 -407.355C799.574 -397.672 892.397 -303.68 952.957 -159.366C1013.51 -15.0675 1041.76 179.455 1023.34 389.994Z" stroke="#B2C5FD" stroke-width="0.666931"/>
<path d="M587.957 755.508C377.418 737.089 190.757 675.487 59.1658 590.797C-72.4398 506.098 -148.886 398.363 -139.203 287.685C-129.52 177.008 -35.5272 84.1849 108.787 23.6254C253.085 -36.9273 447.607 -65.18 658.147 -46.7601C868.687 -28.3403 1055.35 33.2615 1186.94 117.951C1318.54 202.651 1394.99 310.386 1385.31 421.063C1375.62 531.74 1281.63 624.563 1137.32 685.123C993.019 745.676 798.497 773.928 587.957 755.508Z" stroke="#B2C5FD" stroke-width="0.666931"/>
<path d="M930.625 96.3872C1066.47 258.286 1154.9 433.834 1188.07 586.768C1221.24 739.719 1199.11 869.954 1114 941.368C1028.9 1012.78 896.798 1011.95 751.931 952.731C607.079 893.514 449.554 775.944 313.705 614.045C177.855 452.146 89.4251 276.598 56.2611 123.664C23.0934 -29.2862 45.2179 -159.522 130.325 -230.935C215.433 -302.349 347.532 -301.522 492.399 -242.299C637.251 -183.082 794.776 -65.5118 930.625 96.3872Z" stroke="#B2C5FD" stroke-width="0.666931"/>
<path d="M881.565 662.792C719.666 798.641 544.118 887.071 391.184 920.235C238.233 953.403 107.998 931.278 36.584 846.171C-34.8297 761.063 -34.003 628.964 25.2205 484.097C84.4374 339.246 202.008 181.72 363.906 45.8708C525.805 -89.9786 701.354 -178.409 854.287 -211.573C1007.24 -244.74 1137.47 -222.616 1208.89 -137.508C1280.3 -52.4008 1279.47 79.6981 1220.25 224.565C1161.03 369.417 1043.46 526.942 881.565 662.792Z" stroke="#B2C5FD" stroke-width="0.666931"/>
<path d="M760.567 733.127C561.968 805.411 366.762 828.467 211.708 807.325C56.6379 786.18 -58.1764 720.847 -96.1749 616.447C-134.173 512.047 -88.216 388.197 16.9835 272.322C122.171 156.46 286.528 48.6456 485.126 -23.6383C683.725 -95.9222 878.931 -118.978 1033.98 -97.8359C1189.06 -76.6912 1303.87 -11.3578 1341.87 93.0421C1379.87 197.442 1333.91 321.292 1228.71 437.167C1123.52 553.029 959.165 660.843 760.567 733.127Z" stroke="#B2C5FD" stroke-width="0.666931"/>
<path d="M244.825 492.733C172.541 294.134 149.485 98.9283 170.627 -56.1252C191.772 -211.196 257.105 -326.01 361.505 -364.009C465.905 -402.007 589.754 -356.05 705.63 -250.85C821.492 -145.662 929.306 18.6943 1001.59 217.293C1073.87 415.891 1096.93 611.097 1075.79 766.151C1054.64 921.221 989.31 1036.04 884.91 1074.03C780.51 1112.03 656.66 1066.08 540.785 960.876C424.923 855.688 317.108 691.331 244.825 492.733Z" stroke="#B2C5FD" stroke-width="0.666931"/>
<path d="M987.01 525.402C897.692 716.945 775.964 871.28 651.375 965.969C526.772 1060.67 399.388 1095.66 298.697 1048.7C198.006 1001.75 142.928 881.68 135.379 725.356C127.831 569.05 167.813 376.596 257.131 185.054C346.448 -6.48894 468.177 -160.824 592.766 -255.513C717.369 -350.213 844.753 -385.201 945.444 -338.248C1046.13 -291.295 1101.21 -171.224 1108.76 -14.9004C1116.31 141.406 1076.33 333.86 987.01 525.402Z" stroke="#B2C5FD" stroke-width="0.666931"/>
<path d="M452.808 720.142C261.266 630.825 106.931 509.096 12.2414 384.507C-82.4585 259.904 -117.447 132.52 -70.4938 31.8292C-23.5409 -68.8616 96.5306 -123.94 252.854 -131.489C409.16 -139.037 601.614 -99.055 793.157 -9.73719C984.7 79.5807 1139.03 201.309 1233.72 325.898C1328.42 450.502 1363.41 577.885 1316.46 678.576C1269.51 779.267 1149.43 834.345 993.111 841.894C836.805 849.442 644.351 809.46 452.808 720.142Z" stroke="#B2C5FD" stroke-width="0.666931"/>
<path d="M1030.77 365.971C1023.39 577.186 971.643 766.815 893.956 902.658C816.26 1038.52 712.674 1120.5 601.642 1116.62C490.609 1112.74 392.994 1023.74 324.965 882.788C256.943 741.857 218.549 549.08 225.925 337.865C233.3 126.65 285.049 -62.9795 362.736 -198.822C440.431 -334.68 544.017 -416.66 655.05 -412.783C766.082 -408.905 863.697 -319.9 931.727 -178.953C999.748 -38.0216 1038.14 154.755 1030.77 365.971Z" stroke="#B2C5FD" stroke-width="0.666931"/>
<path d="M598.775 749.938C387.72 738.877 199.023 683.828 64.5569 603.782C-69.9244 523.727 -150.084 418.726 -144.269 307.778C-138.455 196.83 -47.7589 100.783 94.3538 35.2239C236.451 -30.3279 429.868 -65.352 640.923 -54.2911C851.977 -43.2302 1040.67 11.8197 1175.14 91.8656C1309.62 171.92 1389.78 276.922 1383.97 387.869C1378.15 498.817 1287.46 594.864 1145.34 660.423C1003.25 725.975 809.829 760.999 598.775 749.938Z" stroke="#B2C5FD" stroke-width="0.666931"/>
<path d="M919.115 93.2715C1060.53 250.331 1155.03 422.686 1193.52 574.369C1232 726.069 1214.43 856.997 1131.87 931.338C1049.31 1005.68 917.261 1009.46 770.415 955.33C623.585 901.205 462.052 789.204 320.635 632.145C179.219 475.085 84.7159 302.73 46.2348 151.047C7.74934 -0.652787 25.3152 -131.581 107.879 -205.922C190.442 -280.262 322.489 -284.046 469.335 -229.914C616.165 -175.789 777.698 -63.7877 919.115 93.2715Z" stroke="#B2C5FD" stroke-width="0.666931"/>
<path d="M884.68 651.281C727.621 792.698 555.266 887.2 403.583 925.682C251.883 964.167 120.955 946.601 46.6141 864.038C-27.7263 781.474 -31.5103 649.427 22.6213 502.581C76.7469 355.751 188.748 194.218 345.807 52.8017C502.866 -88.615 675.222 -183.118 826.905 -221.599C978.605 -260.084 1109.53 -242.518 1183.87 -159.955C1258.21 -77.3917 1262 54.6556 1207.87 201.502C1153.74 348.331 1041.74 509.864 884.68 651.281Z" stroke="#B2C5FD" stroke-width="0.666931"/>
<path d="M785.933 729.482C591.39 812.061 397.658 845.302 241.71 832.303C85.7455 819.303 -32.3307 760.068 -75.741 657.8C-119.151 555.532 -79.7386 429.447 19.2522 308.225C118.232 187.016 276.721 70.7478 471.264 -11.8309C665.807 -94.4096 859.539 -127.65 1015.49 -114.652C1171.45 -101.652 1289.53 -42.4169 1332.94 59.8512C1376.35 162.119 1336.94 288.204 1237.94 409.427C1138.97 530.635 980.476 646.903 785.933 729.482Z" stroke="#B2C5FD" stroke-width="0.666931"/>
<path d="M248.47 518.099C165.891 323.556 132.65 129.824 145.649 -26.1234C158.649 -182.088 217.884 -300.164 320.152 -343.575C422.42 -386.985 548.505 -347.572 669.727 -248.581C790.936 -149.602 907.204 8.88736 989.783 203.431C1072.36 397.974 1105.6 591.706 1092.6 747.653C1079.6 903.618 1020.37 1021.69 918.101 1065.1C815.832 1108.51 689.747 1069.1 568.525 970.111C447.316 871.131 331.048 712.642 248.47 518.099Z" stroke="#B2C5FD" stroke-width="0.666931"/>
<path d="M1002.77 504.55C923.602 700.505 810.117 860.999 690.654 962.079C571.178 1063.17 445.8 1104.78 342.79 1063.16C239.78 1021.54 178.493 904.516 162.773 748.802C147.055 593.105 176.91 398.822 256.081 202.867C335.252 6.91258 448.736 -153.581 568.199 -254.662C687.675 -355.753 813.053 -397.36 916.063 -355.741C1019.07 -314.122 1080.36 -197.098 1096.08 -41.3838C1111.8 114.313 1081.94 308.596 1002.77 504.55Z" stroke="#B2C5FD" stroke-width="0.666931"/>
<path d="M473.66 735.905C277.705 656.734 117.211 543.249 16.1312 423.787C-84.9601 304.31 -126.567 178.933 -84.9484 75.9224C-43.3296 -27.0878 73.6949 -88.3744 229.409 -104.094C385.106 -119.813 579.388 -89.958 775.343 -10.7871C971.298 68.3838 1131.79 181.868 1232.87 301.331C1333.96 420.807 1375.57 546.185 1333.95 649.195C1292.33 752.205 1175.31 813.492 1019.59 829.212C863.898 844.93 669.615 815.076 473.66 735.905Z" stroke="#B2C5FD" stroke-width="0.666931"/>
<path d="M1024.3 355.623C1024.3 566.967 979.206 758.287 906.307 896.758C833.4 1035.25 732.738 1120.79 621.638 1120.79C510.538 1120.79 409.876 1035.25 336.969 896.758C264.071 758.287 218.972 566.967 218.972 355.623C218.972 144.279 264.071 -47.0402 336.969 -185.512C409.876 -323.998 510.538 -409.543 621.638 -409.543C732.738 -409.543 833.4 -323.998 906.307 -185.512C979.206 -47.0402 1024.3 144.279 1024.3 355.623Z" stroke="#B2C5FD" stroke-width="0.666931"/>
<path d="M622.587 757.437C411.243 757.437 219.924 712.338 81.4523 639.439C-57.0345 566.533 -142.579 465.87 -142.579 354.77C-142.579 243.67 -57.0345 143.008 81.4523 70.1014C219.924 -2.79732 411.243 -47.8962 622.587 -47.8962C833.931 -47.8962 1025.25 -2.79732 1163.72 70.1014C1302.21 143.008 1387.75 243.67 1387.75 354.77C1387.75 465.87 1302.21 566.533 1163.72 639.439C1025.25 712.338 833.931 757.437 622.587 757.437Z" stroke="#B2C5FD" stroke-width="0.666931"/>
<path d="M906.89 70.4672C1056.33 219.91 1159.73 387.083 1206.09 536.544C1252.47 686.022 1241.78 817.69 1163.22 896.25C1084.66 974.809 952.988 985.499 803.51 939.127C654.049 892.76 486.876 789.366 337.433 639.924C187.99 490.481 84.5968 323.308 38.2299 173.847C-8.14215 24.3687 2.54738 -107.299 81.107 -185.859C159.667 -264.419 291.335 -275.108 440.813 -228.736C590.274 -182.369 757.447 -78.9756 906.89 70.4672Z" stroke="#B2C5FD" stroke-width="0.666931"/>
<path d="M907.485 639.056C758.042 788.499 590.869 891.892 441.408 938.259C291.93 984.631 160.262 973.942 81.7019 895.382C3.14234 816.823 -7.54724 685.154 38.8248 535.677C85.1917 386.215 188.585 219.042 338.028 69.5995C487.471 -79.8433 654.644 -183.237 804.105 -229.604C953.583 -275.976 1085.25 -265.286 1163.81 -186.727C1242.37 -108.167 1253.06 23.501 1206.69 172.979C1160.32 322.44 1056.93 489.613 907.485 639.056Z" stroke="#B2C5FD" stroke-width="0.666931"/>
<path d="M792.51 719.429C600.968 808.747 408.514 848.728 252.208 841.18C95.8841 833.631 -24.1875 778.553 -71.1404 677.862C-118.093 577.171 -83.105 449.788 11.5949 325.185C106.284 200.595 260.619 78.8669 452.162 -10.451C643.705 -99.7688 836.159 -139.75 992.465 -132.202C1148.79 -124.653 1268.86 -69.5753 1315.81 31.1155C1362.77 131.806 1327.78 259.19 1233.08 383.793C1138.39 508.382 984.053 630.111 792.51 719.429Z" stroke="#B2C5FD" stroke-width="0.666931"/>
<path d="M258.782 525.642C169.464 334.1 129.482 141.646 137.03 -14.6603C144.579 -170.984 199.658 -291.055 300.348 -338.008C401.039 -384.961 528.423 -349.973 653.026 -255.273C777.615 -160.583 899.344 -6.24871 988.662 185.294C1077.98 376.837 1117.96 569.291 1110.41 725.597C1102.86 881.92 1047.79 1001.99 947.095 1048.94C846.404 1095.9 719.021 1060.91 594.417 966.209C469.828 871.52 348.1 717.185 258.782 525.642Z" stroke="#B2C5FD" stroke-width="0.666931"/>
<path d="M1000.76 492.619C928.478 691.217 820.664 855.574 704.802 960.762C588.926 1065.96 465.077 1111.92 360.677 1073.92C256.277 1035.92 190.944 921.107 169.799 766.037C148.657 610.983 171.713 415.777 243.996 217.179C316.28 18.5802 424.095 -145.777 539.957 -250.964C655.832 -356.164 779.682 -402.121 884.082 -364.123C988.482 -326.124 1053.81 -211.31 1074.96 -56.2393C1096.1 98.8141 1073.05 294.02 1000.76 492.619Z" stroke="#B2C5FD" stroke-width="0.666931"/>
<path d="M485.333 732.928C286.735 660.644 122.378 552.83 17.1901 436.968C-88.0094 321.093 -133.967 197.243 -95.9683 92.8431C-57.9698 -11.5567 56.8445 -76.8901 211.915 -98.0349C366.969 -119.177 562.175 -96.1212 760.773 -23.8373C959.372 48.4466 1123.73 156.261 1228.92 272.123C1334.12 387.999 1380.07 511.848 1342.07 616.248C1304.08 720.648 1189.26 785.981 1034.19 807.126C879.138 828.268 683.931 805.212 485.333 732.928Z" stroke="#B2C5FD" stroke-width="0.666931"/>
<path d="M1030.82 330.42C1041.88 541.474 1006.86 734.892 941.305 876.989C875.746 1019.1 779.699 1109.8 668.751 1115.61C557.803 1121.43 452.802 1041.27 372.747 906.785C292.701 772.319 237.651 583.622 226.59 372.568C215.53 161.513 250.554 -31.9044 316.105 -174.001C381.665 -316.114 477.712 -406.81 588.659 -412.624C699.607 -418.439 804.608 -338.279 884.663 -203.798C964.709 -69.3317 1019.76 119.365 1030.82 330.42Z" stroke="#B2C5FD" stroke-width="0.666931"/>
<path d="M632.901 750.252C421.686 757.628 228.909 719.233 87.9781 651.211C-52.9688 583.182 -141.975 485.567 -145.852 374.534C-149.729 263.502 -67.7496 159.916 68.1085 82.2203C203.951 4.5334 393.58 -47.2149 604.796 -54.5907C816.011 -61.9665 1008.79 -23.5721 1149.72 44.4496C1290.67 112.479 1379.67 210.094 1383.55 321.127C1387.43 432.159 1305.45 535.745 1169.59 613.441C1033.75 691.128 844.117 742.876 632.901 750.252Z" stroke="#B2C5FD" stroke-width="0.666931"/>
<path d="M895.151 67.539C1049.72 211.675 1158.88 375.138 1210.44 522.89C1262 670.658 1255.91 802.619 1180.14 883.873C1104.37 965.126 973.156 980.405 822.151 939.277C671.162 898.155 500.483 800.659 345.915 656.522C191.348 512.386 82.1832 348.923 30.6285 201.171C-20.932 53.4027 -14.8441 -78.5583 60.9259 -159.812C136.696 -241.065 267.911 -256.343 418.916 -215.216C569.904 -174.094 740.584 -76.5973 895.151 67.539Z" stroke="#B2C5FD" stroke-width="0.666931"/>
<path d="M909.188 626.61C765.052 781.178 601.589 890.342 453.837 941.897C306.069 993.458 174.108 987.37 92.8541 911.6C11.6007 835.83 -3.6775 704.615 37.4496 553.61C78.5722 402.621 176.069 231.942 320.205 77.3745C464.341 -77.1927 627.804 -186.358 775.556 -237.912C923.324 -289.473 1055.29 -283.385 1136.54 -207.615C1217.79 -131.845 1233.07 -0.629948 1191.94 150.375C1150.82 301.364 1053.32 472.043 909.188 626.61Z" stroke="#B2C5FD" stroke-width="0.666931"/>
<path d="M799.777 709.057C611.468 805.006 420.527 851.679 264.052 849.591C107.561 847.502 -14.3599 796.648 -64.7982 697.657C-115.237 598.666 -84.7153 470.139 5.57841 342.307C95.862 214.489 245.854 87.4486 434.163 -8.49961C622.472 -104.448 813.414 -151.122 969.888 -149.033C1126.38 -146.944 1248.3 -96.0903 1298.74 2.90057C1349.18 101.891 1318.66 230.419 1228.36 358.251C1138.08 486.069 988.086 613.109 799.777 709.057Z" stroke="#B2C5FD" stroke-width="0.666931"/>
<path d="M268.894 531.943C172.946 343.634 126.272 152.693 128.361 -3.78128C130.45 -160.273 181.304 -282.194 280.295 -332.632C379.285 -383.07 507.813 -352.549 635.645 -262.255C763.463 -171.972 890.503 -21.9792 986.451 166.33C1082.4 354.639 1129.07 545.58 1126.98 702.054C1124.9 858.546 1074.04 980.467 975.051 1030.9C876.06 1081.34 747.533 1050.82 619.701 960.528C491.883 870.245 364.843 720.252 268.894 531.943Z" stroke="#B2C5FD" stroke-width="0.666931"/>
<path d="M997.441 480.7C932.132 681.7 830.12 849.719 717.999 958.886C605.865 1068.07 483.695 1118.32 378.033 1083.99C272.37 1049.65 203.07 937.189 176.526 782.951C149.985 628.73 166.215 432.838 231.524 231.838C296.833 30.838 398.845 -137.181 510.966 -246.349C623.099 -355.528 745.269 -405.78 850.932 -371.448C956.594 -337.116 1025.89 -224.652 1052.44 -70.4135C1078.98 83.8076 1062.75 279.7 997.441 480.7Z" stroke="#B2C5FD" stroke-width="0.666931"/>
<path d="M497.511 730.573C296.511 665.264 128.491 563.252 19.3242 451.131C-89.8551 338.998 -140.107 216.828 -105.775 111.165C-71.4432 5.50269 41.0211 -63.7979 195.259 -90.3416C349.48 -116.882 545.372 -100.653 746.372 -35.3441C947.373 29.9648 1115.39 131.977 1224.56 244.098C1333.74 356.231 1383.99 478.402 1349.66 584.064C1315.33 689.726 1202.86 759.027 1048.62 785.571C894.403 812.112 698.511 795.882 497.511 730.573Z" stroke="#B2C5FD" stroke-width="0.666931"/>
<path d="M1023.59 320.445C1042.01 530.985 1013.75 725.507 953.201 869.805C892.641 1014.12 799.818 1108.11 689.141 1117.79C578.463 1127.48 470.729 1051.03 386.029 919.426C301.339 787.835 239.738 601.175 221.318 390.635C202.898 180.095 231.151 -14.4272 291.703 -158.725C352.263 -303.039 445.086 -397.032 555.763 -406.715C666.441 -416.398 774.175 -339.952 858.875 -208.346C943.565 -76.7553 1005.17 109.906 1023.59 320.445Z" stroke="#B2C5FD" stroke-width="0.666931"/>
<path d="M657.506 755.753C446.967 774.172 252.445 745.92 108.147 685.367C-36.1676 624.808 -130.16 531.984 -139.843 421.307C-149.526 310.63 -73.0802 202.895 58.5254 118.196C190.116 33.5057 376.777 -28.0961 587.317 -46.5159C797.857 -64.9358 992.379 -36.6831 1136.68 23.8696C1280.99 84.4291 1374.98 177.252 1384.67 287.93C1394.35 398.607 1317.9 506.342 1186.3 591.041C1054.71 675.731 868.046 737.333 657.506 755.753Z" stroke="#B2C5FD" stroke-width="0.666931"/>
<path d="M881.529 47.0741C1043.43 182.923 1161 340.449 1220.22 485.3C1279.44 630.168 1280.27 762.267 1208.85 847.374C1137.44 932.482 1007.2 954.606 854.252 921.439C701.318 888.274 525.77 799.844 363.871 663.995C201.972 528.146 84.4021 370.62 25.1853 225.769C-34.0382 80.9014 -34.865 -51.1974 36.5487 -136.305C107.962 -221.413 238.198 -243.537 391.149 -210.369C544.082 -177.205 719.631 -88.7752 881.529 47.0741Z" stroke="#B2C5FD" stroke-width="0.666931"/>
<path d="M930.878 613.696C795.028 775.595 637.503 893.165 492.651 952.382C347.784 1011.61 215.685 1012.43 130.578 941.018C45.47 869.604 23.3455 739.369 56.5132 586.418C89.6773 433.485 178.107 257.936 313.957 96.0375C449.806 -65.8614 607.332 -183.432 752.183 -242.648C897.05 -301.872 1029.15 -302.699 1114.26 -231.285C1199.36 -159.871 1221.49 -29.6357 1188.32 123.315C1155.16 276.249 1066.73 451.797 930.878 613.696Z" stroke="#B2C5FD" stroke-width="0.666931"/>
<path d="M824.314 702.61C641.285 808.282 453.048 864.885 296.679 870.988C140.292 877.093 15.8774 832.689 -39.6726 736.474C-95.2226 640.258 -71.4697 510.31 12.01 377.927C95.4804 245.559 238.619 110.843 421.648 5.17093C604.677 -100.501 792.914 -157.104 949.283 -163.208C1105.67 -169.312 1230.08 -124.908 1285.63 -28.6928C1341.18 67.5226 1317.43 197.471 1233.95 329.854C1150.48 462.221 1007.34 596.938 824.314 702.61Z" stroke="#B2C5FD" stroke-width="0.666931"/>
<path d="M275.342 556.481C169.67 373.451 113.067 185.214 106.963 28.8452C100.859 -127.541 145.263 -251.956 241.478 -307.506C337.694 -363.056 467.642 -339.303 600.024 -255.824C732.392 -172.353 867.109 -29.2152 972.781 153.814C1078.45 336.843 1135.06 525.08 1141.16 681.45C1147.26 837.836 1102.86 962.251 1006.64 1017.8C910.429 1073.35 780.481 1049.6 648.098 966.118C515.73 882.648 381.014 739.51 275.342 556.481Z" stroke="#B2C5FD" stroke-width="0.666931"/>
<path d="M1011.59 459.284C956.891 663.426 863.811 836.554 757.557 951.44C651.292 1066.34 531.919 1122.92 424.605 1094.16C317.29 1065.41 242.199 956.722 207.619 804.085C173.044 651.464 178.998 454.991 233.698 250.848C288.398 46.7056 381.477 -126.422 487.731 -241.308C593.997 -356.206 713.37 -412.783 820.684 -384.028C927.998 -355.273 1003.09 -246.59 1037.67 -93.9524C1072.25 58.6682 1066.29 255.141 1011.59 459.284Z" stroke="#B2C5FD" stroke-width="0.666931"/>
<path d="M518.668 743.757C314.525 689.057 141.397 595.978 26.5118 489.724C-88.3865 383.458 -144.963 264.085 -116.208 156.771C-87.4536 49.4566 21.2296 -25.635 173.867 -60.2145C326.488 -94.7902 522.961 -88.8353 727.104 -34.1354C931.246 20.5644 1104.37 113.644 1219.26 219.898C1334.16 326.163 1390.73 445.536 1361.98 552.85C1333.23 660.165 1224.54 735.256 1071.9 769.836C919.284 804.411 722.811 798.456 518.668 743.757Z" stroke="#B2C5FD" stroke-width="0.666931"/>
<path d="M1026.96 294.908C1056.38 504.196 1038.34 699.93 985.425 847.199C932.502 994.485 844.725 1093.21 734.706 1108.67C624.687 1124.13 513.099 1053.43 421.628 926.436C330.167 799.457 258.881 616.276 229.468 406.989C200.054 197.702 218.088 1.96775 271.005 -145.302C323.929 -292.587 411.706 -391.309 521.725 -406.771C631.744 -422.233 743.332 -351.53 834.803 -224.538C926.263 -97.5598 997.55 85.6212 1026.96 294.908Z" stroke="#B2C5FD" stroke-width="0.666931"/>
<path d="M683.043 759.13C473.756 788.543 278.022 770.51 130.753 717.592C-16.5332 664.668 -115.255 576.891 -130.717 466.872C-146.179 356.854 -75.4764 245.265 51.516 153.795C178.494 62.3338 361.675 -8.95272 570.963 -38.3661C780.25 -67.7795 975.984 -49.7461 1123.25 3.17169C1270.54 56.0954 1369.26 143.872 1384.72 253.891C1400.19 363.91 1329.48 475.498 1202.49 566.969C1075.51 658.43 892.331 729.716 683.043 759.13Z" stroke="#B2C5FD" stroke-width="0.666931"/>
<path d="M868.869 45.853C1035.41 175.969 1158.41 329.296 1222.64 471.992C1286.89 614.705 1292.32 746.694 1223.92 834.242C1155.52 921.79 1026.14 948.446 872.123 920.637C718.125 892.83 539.598 810.581 373.057 680.464C206.515 550.348 83.5189 397.021 19.2829 254.325C-44.9602 111.612 -50.3967 -20.3771 18.0033 -107.925C86.4033 -195.473 215.787 -222.129 369.802 -194.32C523.8 -166.513 702.328 -84.2634 868.869 45.853Z" stroke="#B2C5FD" stroke-width="0.666931"/>
<path d="M932.099 601.035C801.982 767.577 648.656 890.573 505.959 954.809C363.247 1019.05 231.258 1024.49 143.71 956.089C56.1616 887.689 29.5054 758.305 57.315 604.29C85.1216 450.292 167.371 271.764 297.488 105.223C427.604 -61.3185 580.93 -184.315 723.627 -248.551C866.339 -312.794 998.329 -318.23 1085.88 -249.83C1173.42 -181.43 1200.08 -52.0463 1172.27 101.969C1144.46 255.967 1062.22 434.494 932.099 601.035Z" stroke="#B2C5FD" stroke-width="0.666931"/>
<path d="M848.151 695.65C670.903 810.756 485.886 877.133 330.051 891.412C174.198 905.693 47.6295 867.862 -12.88 774.685C-73.3894 681.509 -56.47 550.496 19.9669 413.925C96.3954 277.37 232.287 135.347 409.535 20.2411C586.783 -94.8651 771.799 -161.242 927.635 -175.521C1083.49 -189.801 1210.06 -151.97 1270.57 -58.7939C1331.07 34.3825 1314.16 165.396 1237.72 301.966C1161.29 438.521 1025.4 580.544 848.151 695.65Z" stroke="#B2C5FD" stroke-width="0.666931"/>
<path d="M286.014 561.279C174.019 382.049 110.881 195.902 99.324 39.8416C87.7657 -116.237 127.8 -242.126 222.018 -301C316.236 -359.874 446.935 -340.67 582.15 -261.862C717.35 -183.062 856.98 -44.7122 968.975 134.518C1080.97 313.748 1144.11 499.894 1155.67 655.955C1167.22 812.033 1127.19 937.922 1032.97 996.796C938.753 1055.67 808.055 1036.47 672.84 957.658C537.639 878.858 398.01 740.509 286.014 561.279Z" stroke="#B2C5FD" stroke-width="0.666931"/>
<path d="M1023.44 436.494C979.502 643.22 895.611 820.982 795.515 941.271C695.409 1061.57 579.16 1124.32 470.488 1101.22C361.816 1078.12 281.139 973.518 238.619 822.899C196.103 672.297 191.767 475.782 235.708 269.056C279.649 62.3306 363.54 -115.432 463.635 -235.721C563.742 -356.023 679.99 -418.77 788.662 -395.671C897.335 -372.572 978.011 -267.967 1020.53 -117.348C1063.05 33.2535 1067.38 229.769 1023.44 436.494Z" stroke="#B2C5FD" stroke-width="0.666931"/>
<path d="M541.457 755.609C334.732 711.668 156.97 627.777 36.6806 527.681C-83.6217 427.575 -146.368 311.327 -123.269 202.654C-100.17 93.9822 4.43394 13.3056 155.053 -29.215C305.655 -71.7309 502.17 -76.0667 708.896 -32.1258C915.621 11.8151 1093.38 95.706 1213.67 195.802C1333.97 295.908 1396.72 412.156 1373.62 520.829C1350.52 629.501 1245.92 710.177 1095.3 752.698C944.698 795.214 748.183 799.55 541.457 755.609Z" stroke="#B2C5FD" stroke-width="0.666931"/>
<path d="M1018.77 285.535C1055.47 493.668 1044.28 689.912 996.533 838.939C948.782 987.982 864.504 1089.71 755.091 1109C645.679 1128.29 531.692 1061.53 435.844 937.803C340.008 814.094 262.372 633.513 225.672 425.379C188.973 217.246 200.164 21.0019 247.91 -128.025C295.662 -277.068 379.94 -378.793 489.352 -398.085C598.764 -417.377 712.752 -350.612 808.599 -226.889C904.435 -103.18 982.071 77.4016 1018.77 285.535Z" stroke="#B2C5FD" stroke-width="0.666931"/>
<path d="M692.417 750.937C484.284 787.637 288.039 776.445 139.013 728.699C-10.03 680.948 -111.755 596.67 -131.047 487.258C-150.34 377.846 -83.5743 263.858 40.1485 168.011C163.858 72.1743 344.439 -5.46172 552.572 -42.1612C760.706 -78.8607 956.95 -67.6693 1105.98 -19.9234C1255.02 27.8279 1356.74 112.106 1376.04 221.518C1395.33 330.93 1328.56 444.918 1204.84 540.765C1081.13 636.602 900.55 714.238 692.417 750.937Z" stroke="#B2C5FD" stroke-width="0.666931"/>
<path d="M853.112 25.2712C1026.24 146.493 1157.09 293.172 1228.7 432.311C1300.33 571.466 1312.66 702.99 1248.94 793.998C1185.22 885.006 1057.4 918.397 902.145 898.686C746.902 878.977 564.315 806.183 391.192 684.961C218.069 563.739 87.2171 417.06 15.601 277.921C-56.0231 138.767 -68.3599 7.24254 -4.63557 -83.7653C59.0888 -174.773 186.9 -208.164 342.16 -188.453C497.402 -168.744 679.989 -95.9508 853.112 25.2712Z" stroke="#B2C5FD" stroke-width="0.666931"/>
<path d="M952.681 585.278C831.459 758.401 684.78 889.253 545.64 960.87C406.486 1032.49 274.962 1044.83 183.954 981.106C92.9462 917.382 59.5551 789.57 79.2661 634.311C98.9749 479.069 171.768 296.481 292.99 123.358C414.212 -49.7645 560.891 -180.617 700.031 -252.233C839.185 -323.857 970.709 -336.194 1061.72 -272.469C1152.72 -208.745 1186.12 -80.9333 1166.4 74.3261C1146.7 229.568 1073.9 412.156 952.681 585.278Z" stroke="#B2C5FD" stroke-width="0.666931"/>
<path d="M853.597 683.951C680.474 805.172 497.886 877.966 342.644 897.675C187.385 917.386 59.5732 883.995 -4.15118 792.987C-67.8755 701.979 -55.5388 570.455 16.0854 431.3C87.7016 292.161 218.554 145.482 391.677 24.2602C564.799 -96.9617 747.387 -169.755 902.629 -189.464C1057.89 -209.175 1185.7 -175.784 1249.42 -84.7761C1313.15 6.23171 1300.81 137.756 1229.19 276.91C1157.57 416.049 1026.72 562.729 853.597 683.951Z" stroke="#B2C5FD" stroke-width="0.666931"/>
<path d="M294.001 585.763C172.779 412.64 99.9858 230.053 80.277 74.8105C60.566 -80.4489 93.9571 -208.261 184.965 -271.985C275.973 -335.709 407.497 -323.372 546.651 -251.748C685.79 -180.132 832.47 -49.28 953.692 123.843C1074.91 296.966 1147.71 479.553 1167.42 634.795C1187.13 790.055 1153.74 917.866 1062.73 981.591C971.72 1045.32 840.196 1032.98 701.041 961.354C561.902 889.738 415.223 758.886 294.001 585.763Z" stroke="#B2C5FD" stroke-width="0.666931"/>
<path d="M1018.59 424.789C981.891 632.922 904.255 813.504 808.419 937.213C712.572 1060.94 598.584 1127.7 489.172 1108.41C379.76 1089.12 295.482 987.391 247.73 838.348C199.984 689.322 188.793 493.077 225.493 284.944C262.192 76.811 339.828 -103.771 435.665 -227.48C531.512 -351.202 645.499 -417.968 754.911 -398.675C864.324 -379.383 948.602 -277.658 996.353 -128.615C1044.1 20.4113 1055.29 216.656 1018.59 424.789Z" stroke="#B2C5FD" stroke-width="0.666931"/>
<path d="M553.163 750.757C345.03 714.058 164.448 636.422 40.7391 540.585C-82.9837 444.738 -149.749 330.75 -130.457 221.338C-111.164 111.926 -9.43945 27.6479 139.604 -20.1033C288.63 -67.8493 484.874 -79.0407 693.008 -42.3412C901.141 -5.64169 1081.72 71.9943 1205.43 167.831C1329.15 263.678 1395.92 377.666 1376.63 487.078C1357.33 596.49 1255.61 680.768 1106.57 728.519C957.54 776.265 761.296 787.457 553.163 750.757Z" stroke="#B2C5FD" stroke-width="0.666931"/>
<path d="M1019.71 259.759C1067.25 465.687 1066.35 662.248 1026.46 813.569C986.579 964.907 907.74 1070.9 799.488 1095.89C691.235 1120.89 573.909 1060.18 471.718 941.642C369.539 823.118 282.558 646.847 235.016 440.92C187.474 234.993 188.38 38.4315 228.261 -112.89C268.146 -264.227 346.985 -370.224 455.238 -395.216C563.49 -420.208 680.816 -359.5 783.007 -240.963C885.186 -122.439 972.167 53.832 1019.71 259.759Z" stroke="#B2C5FD" stroke-width="0.666931"/>
<path d="M701.832 742.841C495.106 786.782 298.591 782.446 147.989 739.93C-2.63011 697.409 -107.234 616.733 -130.333 508.061C-153.432 399.388 -90.6858 283.14 29.6166 183.033C149.906 82.9379 327.668 -0.953014 534.393 -44.8939C741.119 -88.8348 937.634 -84.499 1088.24 -41.9831C1238.85 0.537485 1343.46 81.2141 1366.56 189.886C1389.66 298.559 1326.91 414.807 1206.61 514.913C1086.32 615.009 908.557 698.9 701.832 742.841Z" stroke="#B2C5FD" stroke-width="0.666931"/>
<path d="M841.5 25.5322C1018.75 140.638 1154.64 282.661 1231.07 419.216C1307.5 555.787 1324.42 686.8 1263.91 779.976C1203.41 873.153 1076.84 910.984 920.984 896.703C765.149 882.424 580.132 816.048 402.884 700.941C225.636 585.835 89.7448 443.812 13.3164 307.257C-63.1204 170.687 -80.0399 39.6734 -19.5305 -53.5029C40.979 -146.679 167.547 -184.511 323.4 -170.23C479.236 -155.951 664.252 -89.574 841.5 25.5322Z" stroke="#B2C5FD" stroke-width="0.666931"/>
<path d="M952.161 572.701C837.055 749.949 695.031 885.84 558.476 962.268C421.906 1038.71 290.893 1055.62 197.717 995.115C104.54 934.606 66.709 808.037 80.9895 652.185C95.2684 496.349 161.645 311.333 276.752 134.085C391.858 -43.1633 533.881 -179.055 670.436 -255.483C807.006 -331.92 938.02 -348.839 1031.2 -288.33C1124.37 -227.821 1162.2 -101.252 1147.92 54.6005C1133.64 210.436 1067.27 395.453 952.161 572.701Z" stroke="#B2C5FD" stroke-width="0.666931"/>
</g>
</g>
<defs>
<clipPath id="clip0_1_542">
<rect width="1136" height="541" fill="white"/>
</clipPath>
<clipPath id="clip1_1_542">
<rect width="831" height="591" fill="white" transform="translate(407 -186) rotate(75)"/>
</clipPath>
</defs>
</svg>
