<svg width="20" height="21" viewBox="0 0 20 21" fill="none" xmlns="http://www.w3.org/2000/svg">
<g clip-path="url(#clip0_1_2039)">
<path d="M19.2142 6.60795C18.7106 5.41709 17.9897 4.34764 17.0715 3.42936C16.1533 2.51105 15.084 1.79002 13.8931 1.28627C12.66 0.764609 11.3504 0.500078 10 0.5C8.65031 0.5 7.34072 0.764453 6.10764 1.286C4.91684 1.78965 3.84746 2.51059 2.92922 3.42877C2.01098 4.34695 1.28998 5.41629 0.78625 6.60705C0.264609 7.84012 7.81423e-05 9.14971 1.73086e-08 10.4994C-7.81077e-05 11.8492 0.264316 13.1589 0.78582 14.3921C1.28943 15.5829 2.01035 16.6524 2.92853 17.5706C3.84672 18.489 4.91607 19.21 6.10689 19.7138C7.34002 20.2354 8.64967 20.4999 9.99992 20.5H10.0001C11.3498 20.5 12.6593 20.2356 13.8924 19.714C15.0832 19.2104 16.1526 18.4894 17.0708 17.5713C17.989 16.6531 18.7101 15.5838 19.2138 14.393C19.7354 13.1599 19.9999 11.8503 20 10.5006C20.0001 9.1508 19.7357 7.84113 19.2142 6.60795ZM10.0001 19.5689H9.99949C7.57711 19.5688 5.29975 18.6253 3.58693 16.9123C1.87416 15.1993 0.930957 12.9219 0.931094 10.4995C0.931387 5.49916 4.99969 1.43111 10.0005 1.43111C12.4229 1.43125 14.7003 2.37471 16.413 4.0877C18.1258 5.8007 19.069 8.07814 19.0689 10.5005C19.0686 15.5008 15.0004 19.5689 10.0001 19.5689Z" fill="#0B2836"/>
<path d="M19.2142 6.60795C18.7106 5.41709 17.9897 4.34764 17.0715 3.42936C16.1533 2.51105 15.084 1.79002 13.8931 1.28627C12.66 0.764609 11.3504 0.500078 10 0.5C8.65031 0.5 7.34072 0.764453 6.10764 1.286C4.91684 1.78965 3.84746 2.51059 2.92922 3.42877C2.01098 4.34695 1.28998 5.41629 0.78625 6.60705C0.264609 7.84012 7.81423e-05 9.14971 1.73086e-08 10.4994C-7.81077e-05 11.8492 0.264316 13.1589 0.78582 14.3921C1.28943 15.5829 2.01035 16.6524 2.92853 17.5706C3.84672 18.489 4.91607 19.21 6.10689 19.7138C7.34002 20.2354 8.64967 20.4999 9.99992 20.5H10.0001C11.3498 20.5 12.6593 20.2356 13.8924 19.714C15.0832 19.2104 16.1526 18.4894 17.0708 17.5713C17.989 16.6531 18.7101 15.5838 19.2138 14.393C19.7354 13.1599 19.9999 11.8503 20 10.5006C20.0001 9.1508 19.7357 7.84113 19.2142 6.60795ZM10.0001 19.5689H9.99949C7.57711 19.5688 5.29975 18.6253 3.58693 16.9123C1.87416 15.1993 0.930957 12.9219 0.931094 10.4995C0.931387 5.49916 4.99969 1.43111 10.0005 1.43111C12.4229 1.43125 14.7003 2.37471 16.413 4.0877C18.1258 5.8007 19.069 8.07814 19.0689 10.5005C19.0686 15.5008 15.0004 19.5689 10.0001 19.5689Z" fill="url(#paint0_radial_1_2039)"/>
<path d="M13.5 7.5C13.7761 7.5 14 7.27614 14 7C14 6.72386 13.7761 6.5 13.5 6.5C13.2239 6.5 13 6.72386 13 7C13 7.27614 13.2239 7.5 13.5 7.5Z" fill="#0B2836"/>
<path d="M13.5 7.5C13.7761 7.5 14 7.27614 14 7C14 6.72386 13.7761 6.5 13.5 6.5C13.2239 6.5 13 6.72386 13 7C13 7.27614 13.2239 7.5 13.5 7.5Z" fill="url(#paint1_radial_1_2039)"/>
<path d="M11 12.5C9.34578 12.5 8 11.3785 8 10C8 8.62148 9.3458 7.5 11 7.5C12.6542 7.5 14 8.6215 14 10C14 11.3785 12.6542 12.5 11 12.5ZM11 8.28173C9.86305 8.28173 8.93807 9.05255 8.93807 10C8.93807 10.9475 9.86305 11.7183 11 11.7183C12.137 11.7183 13.0619 10.9475 13.0619 10C13.0619 9.05255 12.137 8.28173 11 8.28173Z" fill="#0B2836"/>
<path d="M11 12.5C9.34578 12.5 8 11.3785 8 10C8 8.62148 9.3458 7.5 11 7.5C12.6542 7.5 14 8.6215 14 10C14 11.3785 12.6542 12.5 11 12.5ZM11 8.28173C9.86305 8.28173 8.93807 9.05255 8.93807 10C8.93807 10.9475 9.86305 11.7183 11 11.7183C12.137 11.7183 13.0619 10.9475 13.0619 10C13.0619 9.05255 12.137 8.28173 11 8.28173Z" fill="url(#paint2_radial_1_2039)"/>
<path d="M12.3057 15.5H8.69436C6.65726 15.5 5 13.8937 5 11.9193V8.08066C5 6.10627 6.65728 4.5 8.69436 4.5H12.3056C14.3427 4.5 16 6.10627 16 8.08066V11.9193C16 13.8937 14.3427 15.5 12.3057 15.5ZM8.69436 5.35936C7.14618 5.35936 5.88665 6.58013 5.88665 8.08066V11.9193C5.88665 13.4199 7.14618 14.6406 8.69436 14.6406H12.3056C13.8538 14.6406 15.1134 13.4199 15.1134 11.9193V8.08066C15.1134 6.58013 13.8538 5.35936 12.3056 5.35936H8.69436Z" fill="#0B2836"/>
<path d="M12.3057 15.5H8.69436C6.65726 15.5 5 13.8937 5 11.9193V8.08066C5 6.10627 6.65728 4.5 8.69436 4.5H12.3056C14.3427 4.5 16 6.10627 16 8.08066V11.9193C16 13.8937 14.3427 15.5 12.3057 15.5ZM8.69436 5.35936C7.14618 5.35936 5.88665 6.58013 5.88665 8.08066V11.9193C5.88665 13.4199 7.14618 14.6406 8.69436 14.6406H12.3056C13.8538 14.6406 15.1134 13.4199 15.1134 11.9193V8.08066C15.1134 6.58013 13.8538 5.35936 12.3056 5.35936H8.69436Z" fill="url(#paint3_radial_1_2039)"/>
</g>
<defs>
<radialGradient id="paint0_radial_1_2039" cx="0" cy="0" r="1" gradientUnits="userSpaceOnUse" gradientTransform="translate(2.98611 20.5695) scale(25.555)">
<stop stop-color="#FFB140"/>
<stop offset="0.2559" stop-color="#FF5445"/>
<stop offset="0.599" stop-color="#FC2B82"/>
<stop offset="1" stop-color="#8E40B7"/>
</radialGradient>
<radialGradient id="paint1_radial_1_2039" cx="0" cy="0" r="1" gradientUnits="userSpaceOnUse" gradientTransform="translate(13.1493 7.50347) scale(1.27775)">
<stop stop-color="#FFB140"/>
<stop offset="0.2559" stop-color="#FF5445"/>
<stop offset="0.599" stop-color="#FC2B82"/>
<stop offset="1" stop-color="#8E40B7"/>
</radialGradient>
<radialGradient id="paint2_radial_1_2039" cx="0" cy="0" r="1" gradientUnits="userSpaceOnUse" gradientTransform="translate(8.89583 12.5174) scale(7.6665 6.38875)">
<stop stop-color="#FFB140"/>
<stop offset="0.2559" stop-color="#FF5445"/>
<stop offset="0.599" stop-color="#FC2B82"/>
<stop offset="1" stop-color="#8E40B7"/>
</radialGradient>
<radialGradient id="paint3_radial_1_2039" cx="0" cy="0" r="1" gradientUnits="userSpaceOnUse" gradientTransform="translate(6.64236 15.5382) scale(14.0552)">
<stop stop-color="#FFB140"/>
<stop offset="0.2559" stop-color="#FF5445"/>
<stop offset="0.599" stop-color="#FC2B82"/>
<stop offset="1" stop-color="#8E40B7"/>
</radialGradient>
<clipPath id="clip0_1_2039">
<rect width="20" height="20" fill="white" transform="translate(0 0.5)"/>
</clipPath>
</defs>
</svg>
