<svg width="46" height="46" viewBox="0 0 46 46" fill="none" xmlns="http://www.w3.org/2000/svg">
<path d="M25.4871 22.4405C25.5949 22.5222 25.6973 22.6103 25.7937 22.7047C26.3734 23.2719 26.7325 24.0564 26.7325 24.9221C26.7325 25.7879 26.3734 26.5724 25.7937 27.1396L25.7928 27.1389C25.6264 27.3015 25.442 27.4465 25.2428 27.5705C25.3238 27.172 25.4044 26.7805 25.4236 26.375C25.4263 26.3159 25.4276 26.2571 25.4276 26.1985C25.6825 25.8357 25.8319 25.396 25.8319 24.9223C25.8319 24.385 25.6397 23.8911 25.3189 23.5038L25.3446 23.4162C25.3792 23.3018 25.4146 23.1893 25.4495 23.0793C25.4501 23.0276 25.4524 22.9714 25.4558 22.9079C25.463 22.7762 25.4752 22.6148 25.4871 22.4405ZM22.16 27.758C21.8254 27.6029 21.5224 27.393 21.2633 27.1396L21.2624 27.1389L21.2615 27.1382C20.6813 26.5699 20.3227 25.7863 20.3227 24.9225C20.3227 24.0583 20.6818 23.2742 21.2624 22.7059L21.2615 22.705C21.5413 22.4312 21.8729 22.2076 22.2408 22.0496C22.282 22.3294 22.3157 22.594 22.3306 22.9233L22.3342 22.9931C22.1753 23.0874 22.0287 23.2002 21.8981 23.328H21.8963C21.4805 23.7347 21.2232 24.2986 21.2232 24.9225C21.2232 25.5464 21.4805 26.1103 21.8963 26.517L21.8981 26.5188L21.9042 26.5245C21.9533 26.8739 22.0404 27.2187 22.1131 27.5548C22.128 27.6229 22.1435 27.6902 22.16 27.758ZM13.6028 10.8829C13.6048 10.8782 13.6073 10.8732 13.6095 10.8686C13.6149 10.8688 13.6142 10.8723 13.6138 10.8761C13.6147 10.8793 13.6142 10.8833 13.6149 10.887C13.6106 10.8857 13.6066 10.8842 13.6028 10.8829ZM14.763 8.89205C14.7612 8.88896 14.766 8.89667 14.763 8.89205V8.89205ZM14.8468 8.40917C14.856 8.47833 14.8459 8.54529 14.8153 8.62614C14.8085 8.55411 14.8357 8.48316 14.8468 8.40917ZM14.7795 8.83566C14.7923 8.84424 14.782 8.87597 14.7624 8.87356C14.764 8.85436 14.7738 8.8482 14.7795 8.83566ZM12.3472 6.3269C12.333 6.33306 12.3198 6.34146 12.2997 6.33814C12.3144 6.33197 12.3276 6.32361 12.3472 6.3269ZM12.2808 6.33859C12.3018 6.35358 12.2394 6.36083 12.2261 6.37253C12.2068 6.38948 12.1768 6.3886 12.1588 6.40842C12.1054 6.42054 12.0645 6.45489 12.0179 6.47871C11.9186 6.51414 11.8434 6.59059 11.7545 6.64326C11.589 6.77346 11.4352 6.92348 11.2849 7.079C11.4922 6.65142 11.8657 6.43707 12.2808 6.33859ZM9.74435 10.2951C9.75516 10.2964 9.75469 10.3037 9.74861 10.3026C9.65585 10.3969 9.55837 10.4832 9.43165 10.5189C9.52913 10.4328 9.63853 10.3667 9.74435 10.2951ZM26.7005 21.4404C26.7678 21.4992 26.8338 21.56 26.8977 21.6225L26.8995 21.6243C27.7622 22.4687 28.2962 23.635 28.2962 24.9221C28.2962 26.2105 27.7622 27.3776 26.8995 28.2217H26.8977C26.3642 28.7436 25.7052 29.1426 24.9688 29.371C25.0046 29.0368 25.0497 28.7086 25.0976 28.383C25.5352 28.1929 25.9299 27.9261 26.2637 27.5996L26.263 27.5989C26.9627 26.9143 27.3958 25.9676 27.3958 24.9223C27.3958 23.8764 26.9632 22.9298 26.2639 22.2449C26.0406 22.0265 25.7903 21.8351 25.5181 21.6752C25.5179 21.5994 25.5156 21.5258 25.5115 21.4557C25.5537 21.4718 25.5953 21.4879 25.636 21.4972C25.9219 21.561 26.195 21.6108 26.4879 21.6696C26.5208 21.5908 26.5798 21.502 26.5906 21.4308C26.6266 21.4322 26.6631 21.4355 26.7005 21.4404ZM22.6233 29.5046C21.6692 29.3252 20.8157 28.8677 20.1557 28.2217C19.293 27.3776 18.759 26.2105 18.759 24.9221C18.759 23.7991 19.1656 22.7683 19.8421 21.9629L19.974 21.9783C20.076 21.9898 20.1723 22.0259 20.2655 22.0319C20.6055 22.0532 20.9758 21.8321 21.3013 21.7422C21.3767 21.7215 21.4508 21.7021 21.524 21.6836C21.2572 21.842 21.0116 22.031 20.7923 22.2456L20.7914 22.2447C20.0922 22.9296 19.6595 23.8762 19.6595 24.9221C19.6595 25.9675 20.0926 26.9141 20.7923 27.5987C21.2277 28.0248 21.7667 28.3497 22.3691 28.5346L22.4294 28.7535C22.497 29.0027 22.56 29.2532 22.6233 29.5046ZM20.6052 21.2344C20.829 21.0643 21.069 20.9134 21.3223 20.7839C21.2975 20.8112 21.2757 20.8403 21.2599 20.8755C21.2311 20.9398 21.2009 21.0017 21.1942 21.072C21.0001 21.1284 20.8043 21.1835 20.6052 21.2344ZM22.1588 20.451L22.2824 20.4167L22.1978 20.4574L22.1588 20.451ZM25.1226 18.849C26.1573 19.1085 27.0911 19.6145 27.8545 20.2992C27.6845 20.447 27.5731 20.6647 27.3853 20.7204C27.366 20.7614 27.393 20.7947 27.345 20.8048C27.2322 20.7986 27.108 20.7625 26.9846 20.7286C26.4625 20.3158 25.8617 19.9946 25.2075 19.7897C25.1847 19.5881 25.1062 19.3848 25.1172 19.142C25.1217 19.0433 25.1239 18.9453 25.1226 18.849ZM28.4367 20.8944C29.3712 21.9838 29.9342 23.3889 29.9342 24.9221C29.9342 26.653 29.2167 28.2209 28.0575 29.3552C27.2052 30.1892 26.1134 30.7895 24.8921 31.0488C24.8846 30.7378 24.8905 30.4355 24.9063 30.1399C25.8729 29.896 26.7365 29.4019 27.4209 28.7322C28.4171 27.7574 29.0337 26.41 29.0337 24.9221C29.0337 23.6268 28.5663 22.4381 27.7879 21.5089C28.0179 21.3417 28.2293 21.1238 28.4367 20.8944ZM23.185 31.1825C21.5523 31.0984 20.0812 30.4157 18.9974 29.3552C17.8382 28.2209 17.121 26.653 17.121 24.9221C17.121 23.7013 17.4778 22.5617 18.0951 21.5979C18.4139 21.6479 18.7243 21.725 19.0316 21.8109C18.3954 22.6897 18.0215 23.7632 18.0215 24.9221C18.0215 26.41 18.6379 27.7574 19.6341 28.7322C20.4736 29.5537 21.5834 30.111 22.8218 30.2661C22.8482 30.3613 22.8754 30.4567 22.9038 30.5518C22.9799 30.8082 23.0224 31.0526 23.185 31.1825ZM18.429 21.126C18.6037 20.9013 18.7937 20.6887 18.9974 20.4893C19.9952 19.513 21.3212 18.8572 22.7991 18.6933C22.8074 18.9393 22.8272 19.27 22.8403 19.576C21.5945 19.7278 20.4778 20.2867 19.6341 21.1123L19.5595 21.187C19.1865 21.1703 18.811 21.1846 18.429 21.126ZM23.5276 17.0501C25.5976 17.0501 27.4857 17.8156 28.9114 19.0728C28.8493 19.2368 28.795 19.465 28.7529 19.5793C28.7575 19.5976 28.762 19.6159 28.766 19.6346C28.6728 19.7253 28.5647 19.7994 28.4614 19.8659C27.5193 18.9854 26.3313 18.3544 25.0085 18.0817C24.9612 17.9438 24.8968 17.8158 24.8108 17.7013C24.5494 17.3532 24.0352 17.0512 23.5656 17.3147C23.1645 17.288 22.949 17.5796 22.8547 17.9621C21.1503 18.1179 19.6196 18.8594 18.4758 19.9787C18.2275 20.2219 17.9972 20.4827 17.7873 20.7594C17.7883 20.6208 17.7801 20.5347 17.7063 20.4169C17.585 20.223 17.44 20.1179 17.2759 19.9677C17.4528 19.7542 17.6408 19.5498 17.8391 19.3557C19.295 17.9315 21.3061 17.0501 23.5276 17.0501ZM29.7973 19.9893C30.9074 21.339 31.5722 23.0549 31.5722 24.9221C31.5722 27.096 30.6715 29.0639 29.216 30.4886C27.9571 31.7201 26.2827 32.5455 24.4168 32.7464C24.4144 32.7103 24.4137 32.6722 24.4155 32.631C24.4267 32.3757 24.5618 32.1591 24.5737 31.8864C24.6861 31.8804 24.7921 31.8681 24.87 31.8285L24.884 31.787C26.3128 31.518 27.5906 30.8329 28.5794 29.8656C29.8718 28.6007 30.6717 26.8526 30.6717 24.9221C30.6717 23.1725 30.0148 21.5728 28.9294 20.3466C28.9898 20.2827 29.0503 20.2204 29.1122 20.1607C29.1314 20.1763 29.1521 20.1895 29.1753 20.1988C29.2586 20.2327 29.4042 20.2261 29.5352 20.1919L29.5506 20.1305C29.5889 20.1098 29.6168 20.0884 29.6174 20.0569C29.6926 20.049 29.7507 20.025 29.7973 19.9893ZM23.5055 32.794C21.2928 32.788 19.2903 31.9082 17.8391 30.4886C16.3837 29.0639 15.483 27.096 15.483 24.9221C15.483 24.1685 15.5915 23.4396 15.7937 22.7494C15.9001 22.7555 16.0064 22.7752 16.1097 22.7282C16.046 22.6042 15.9857 22.4729 15.9274 22.3363C16.0827 21.8995 16.2761 21.4798 16.5039 21.0815L16.5055 21.1011C16.5199 21.3884 16.4915 21.8063 16.8355 21.721C16.9537 21.5538 16.847 21.2628 16.8486 21.0493C16.8634 21.0489 16.8779 21.048 16.8918 21.0465C16.8853 21.0775 16.8959 21.1073 16.9373 21.1348C16.9112 21.1824 16.8812 21.2302 16.8925 21.2751C16.9254 21.3082 16.9557 21.3104 16.9868 21.3161C17.0005 21.3608 16.9611 21.4095 16.9693 21.4547C17.0618 21.4979 17.0127 21.5518 17.0368 21.6005C17.0854 21.6435 17.1336 21.6825 17.1811 21.7093C16.6716 22.6714 16.3835 23.7638 16.3835 24.9221C16.3835 26.8526 17.1833 28.6007 18.4758 29.8656C19.7581 31.1202 21.526 31.9 23.4799 31.9126C23.444 32.2206 23.4751 32.5065 23.5055 32.794ZM23.5276 15.4472C25.8905 15.4472 28.0564 16.276 29.7374 17.6526L29.6883 17.7586C29.5798 17.9832 29.4054 18.1707 29.2971 18.3853C29.2901 18.399 29.284 18.4128 29.2784 18.4271C27.7376 17.1197 25.7271 16.3284 23.5276 16.3284C21.1025 16.3284 18.9067 17.2904 17.3178 18.8455C17.1268 19.0323 16.9447 19.2275 16.772 19.4308C16.6818 19.2801 16.6163 19.0704 16.5451 18.8801C16.4983 18.7552 16.4573 18.6239 16.4199 18.4884C16.5055 18.3983 16.5922 18.3095 16.6811 18.2225C18.433 16.5079 20.8538 15.4472 23.5276 15.4472ZM30.3043 18.1549L30.3741 18.2225C31.5321 19.3555 32.3979 20.7746 32.8523 22.3621C32.8736 23.0168 32.9085 23.6543 32.9981 24.3056C33.0724 24.8451 33.1199 25.387 33.1559 25.93C32.9169 28.144 31.8982 30.1306 30.3741 31.6218C28.7772 33.1846 26.6242 34.2044 24.2311 34.3725C24.2766 34.3097 24.3391 34.2396 24.3664 34.2072C24.5238 34.018 24.8749 33.8664 24.6726 33.5499C24.6696 33.5126 24.6645 33.478 24.6575 33.4454C26.6307 33.1974 28.3993 32.3085 29.7374 30.9988C31.3266 29.444 32.3097 27.2952 32.3097 24.9221C32.3097 22.7718 31.5026 20.8059 30.1688 19.2989C30.1985 19.2259 30.2158 19.1537 30.2046 19.0819C30.191 18.9973 30.1158 18.9484 30.0798 18.873C29.956 18.6126 30.1123 18.3884 30.2399 18.2287C30.2599 18.2035 30.2815 18.1791 30.3043 18.1549ZM22.8454 34.3737C20.4434 34.2101 18.2828 33.1892 16.6811 31.6218C14.929 29.9075 13.845 27.5386 13.845 24.9221C13.845 24.6563 13.8565 24.393 13.8783 24.1326C13.9364 23.8978 13.9954 23.6632 14.0478 23.4268C14.125 23.0774 14.1117 22.9426 14.5208 22.9564C14.6906 22.9622 14.8407 22.9228 14.9933 22.8866C14.8313 23.5391 14.7455 24.2209 14.7455 24.9221C14.7455 27.2952 15.7286 29.444 17.3178 30.9988C18.9067 32.5539 21.1025 33.5159 23.5276 33.5159H23.5422L23.5361 33.6078C23.4632 33.7164 23.4161 33.8435 23.2694 33.9556C23.1334 34.0596 22.9137 34.103 22.8641 34.2264C22.8466 34.2702 22.8409 34.3229 22.8454 34.3737ZM15.1361 20.1926C15.3752 19.7875 15.6437 19.4013 15.9391 19.0369L15.9778 19.1257C16.0868 19.3812 16.103 19.6621 16.2155 19.926C16.2342 19.9703 16.2626 20.0104 16.2923 20.0501C16.0075 20.4543 15.7574 20.8832 15.5456 21.3335L15.4368 21.0368C15.3331 20.7583 15.2347 20.4752 15.1361 20.1926ZM23.5276 13.8443C26.049 13.8443 28.3779 14.6512 30.2593 16.0151C30.2876 16.0885 30.3 16.1508 30.2169 16.2907C30.1418 16.407 30.0796 16.53 30.0305 16.659C29.9954 16.7637 29.9891 16.8445 29.9864 16.9203C28.2109 15.5463 25.967 14.7255 23.5276 14.7255C20.6861 14.7255 18.11 15.8389 16.2306 17.6431C16.1708 17.3364 16.1138 17.0311 16.0435 16.7498C16.0341 16.7117 16.0237 16.674 16.0132 16.6366C18.012 14.8995 20.644 13.8443 23.5276 13.8443ZM31.6161 17.1719C32.0258 17.5814 32.4034 18.0218 32.7449 18.4893C32.6739 18.9094 32.5767 19.3213 32.5044 19.7417C32.0562 18.9997 31.5148 18.3179 30.8957 17.7121L30.8649 17.6823C31.2179 17.6264 31.3444 17.2963 31.6161 17.1719ZM33.4745 30.2154C32.9526 31.1521 32.2971 32.0071 31.5323 32.7554C29.4839 34.7599 26.6537 36 23.5276 36C20.4017 36 17.571 34.7599 15.5226 32.7554C14.6919 31.9425 13.9895 31.0034 13.4481 29.9705C13.5933 29.4997 13.7304 29.0267 13.7824 28.5408C14.3101 29.9013 15.1271 31.1224 16.1593 32.1325C18.0057 33.9393 20.5429 35.0712 23.3498 35.117L23.3387 35.1547C23.3115 35.2375 23.266 35.312 23.2597 35.3675C23.2444 35.4986 23.3275 35.6365 23.4373 35.6577C23.5888 35.6867 23.8016 35.6213 23.9808 35.5898C24.1638 35.5581 24.3333 35.5175 24.4648 35.4737C24.4821 35.4358 24.5123 35.4105 24.5344 35.377C24.5274 35.2622 24.5064 35.1651 24.4758 35.0772C26.9749 34.8567 29.2196 33.7726 30.8957 32.1325C31.9443 31.1063 32.7705 29.8621 33.2973 28.4753C33.3365 29.0567 33.3894 29.6372 33.4745 30.2154ZM14.4215 18.3397C14.6417 18.0485 14.8758 17.7685 15.1235 17.5001C15.2696 17.7815 15.4274 18.0539 15.5789 18.3285C15.3078 18.6413 15.0553 18.9704 14.8236 19.3141C14.6991 18.9788 14.5678 18.6512 14.4215 18.3397ZM16.2196 34.309C16.4166 34.4562 16.4544 34.7324 16.304 34.9252C16.1536 35.1179 15.8713 35.1549 15.6743 35.0078C14.6469 34.2418 13.7549 33.3395 13.0167 32.3371C13.0091 32.2481 13.0033 32.1591 13.0033 32.0699C13.0035 31.6901 13.0681 31.3185 13.1606 30.9504C13.9406 32.2349 14.9728 33.3793 16.2196 34.309ZM12.2209 31.1154C12.134 30.9638 12.0505 30.8102 11.9701 30.6551C11.9913 30.5192 12.0097 30.3842 11.9683 30.2668C11.8909 30.0476 11.7545 29.8616 11.7088 29.6301C11.6586 29.3781 11.6532 29.1194 11.6169 28.8652C11.5368 28.3019 11.6795 27.6752 11.4891 27.1355C11.4042 26.8947 11.2529 26.6947 11.0942 26.4966C10.953 26.3204 11.023 26.1598 11.0559 25.9562C11.1435 25.4178 11.1878 24.8732 11.2725 24.334C11.3108 24.0899 11.3515 23.8462 11.3914 23.6026C11.4254 23.3942 11.3704 23.3336 11.5845 23.2865C11.5086 23.8211 11.4695 24.3672 11.4695 24.9221C11.4695 26.1179 11.6543 27.2908 12.0062 28.4059C12.0075 28.7212 12.0498 29.0349 12.091 29.3475C12.1682 29.9337 12.22 30.5241 12.2209 31.1154ZM13.5876 16.7866C13.8342 16.4984 14.0933 16.2211 14.3646 15.9556C14.4278 15.8937 14.492 15.8325 14.5564 15.7719C14.596 15.9477 14.6306 16.1268 14.6581 16.3108C14.6838 16.4813 14.7326 16.6344 14.7934 16.7868C14.5298 17.0578 14.2793 17.3411 14.0426 17.6354L14.0379 17.6277C13.9136 17.429 13.7758 17.225 13.6818 17.021C13.6487 16.9492 13.6169 16.8703 13.5876 16.7866ZM15.503 14.9649C17.7099 13.2597 20.4976 12.2414 23.5276 12.2414C26.3227 12.2414 28.9119 13.1076 31.0287 14.5808C31.0148 14.6002 31.0015 14.6145 30.9889 14.6217C30.6877 14.794 30.9058 15.0674 30.619 15.2729C30.5944 15.2906 30.5688 15.3075 30.5431 15.3245C28.5665 13.9388 26.1444 13.1226 23.5276 13.1226C20.5658 13.1226 17.8533 14.1677 15.7545 15.9012C15.6989 15.7475 15.6471 15.5926 15.6084 15.4329C15.571 15.2789 15.5372 15.1225 15.503 14.9649ZM32.5019 15.775C32.5652 15.8347 32.6285 15.8948 32.6906 15.9556C32.7536 16.0173 32.8162 16.0799 32.8779 16.1429C32.9229 16.5482 32.8475 17.0269 32.8387 17.4243C32.6447 17.1937 32.4416 16.9705 32.2304 16.7551C32.2557 16.6106 32.2424 16.4383 32.2509 16.2636C32.2577 16.1241 32.372 15.8942 32.5019 15.775ZM36.4245 26.1576C36.32 27.1994 36.0848 28.2174 35.7291 29.1906C35.6679 28.5623 35.6197 27.9334 35.6008 27.3022C35.569 26.2463 35.7073 25.2127 35.6492 24.1661C35.6382 23.9656 35.6906 23.7385 35.7028 23.5217C35.7388 22.867 35.7336 22.1757 35.6492 21.5371C35.6478 21.5119 35.6463 21.4875 35.6672 21.4844C35.8284 21.4721 35.791 21.6056 35.8093 21.8153C35.8791 22.6079 35.9623 23.4578 36.0943 24.1661C36.2127 24.8023 36.3653 25.4841 36.4245 26.1576ZM33.902 32.5193C33.2406 33.3844 32.4628 34.1715 31.58 34.8567C31.3858 35.0076 31.1028 34.976 30.9486 34.7859C30.7944 34.5958 30.8266 34.3189 31.0208 34.168C32.09 33.3384 32.9938 32.3481 33.708 31.2477C33.8153 31.6714 33.9126 32.1043 33.902 32.5193ZM10.4981 31.7553C10.014 30.8479 9.63109 29.8929 9.35442 28.9076C9.00615 27.6675 8.82718 26.3858 8.82718 25.0964C8.82718 24.4362 8.87288 23.7863 8.96091 23.1499C9.03248 23.1988 9.003 23.3005 9.02776 23.4362C9.05456 23.583 9.08788 23.7288 9.12367 23.8735C9.18401 24.1176 9.25064 24.3595 9.30557 24.6047C9.42578 25.1429 9.3425 25.6421 9.39336 26.1759C9.41655 26.4188 9.53407 26.6416 9.55186 26.8861C9.56943 27.1357 9.55071 27.3542 9.64078 27.595C9.79814 28.0171 9.99131 28.4374 10.2565 28.8055C10.4132 29.3426 10.6046 29.8709 10.8296 30.387C10.7009 30.7517 10.6464 31.1986 10.5561 31.5421L10.4981 31.7553ZM13.8835 14.2397C13.9488 14.1842 14.0143 14.1294 14.0805 14.075C14.168 14.3893 14.2642 14.6969 14.3547 15.0075C14.1543 15.182 13.9591 15.3622 13.7696 15.5476C13.6489 15.6657 13.5302 15.7862 13.4141 15.9085C13.4116 15.8382 13.413 15.7697 13.4181 15.7041C13.4447 15.3648 13.5897 15.0767 13.7083 14.7742C13.7774 14.5975 13.827 14.4162 13.8835 14.2397ZM15.3169 13.1627C17.6613 11.6151 20.4866 10.7113 23.5276 10.7113C26.4817 10.7113 29.2325 11.5645 31.5366 13.0321C31.4918 13.3224 31.4549 13.5819 31.3255 13.8584C31.3167 13.8772 31.3063 13.9025 31.2948 13.9331C29.0825 12.4562 26.4081 11.5924 23.5276 11.5924C20.4576 11.5924 17.6217 12.5734 15.3297 14.2325C15.3126 14.1534 15.2988 14.0752 15.2916 13.9994C15.2655 13.7262 15.308 13.4423 15.3169 13.1627ZM8.39022 28.7207C8.44648 28.9573 8.2961 29.1939 8.05433 29.249C7.81256 29.3041 7.57075 29.1569 7.51449 28.9203C7.3722 28.3224 7.26481 27.7164 7.19345 27.1073C7.12141 26.4944 7.08516 25.8811 7.08516 25.2709C7.08516 24.1654 7.19932 23.086 7.41633 22.0431C7.44131 22.07 7.47148 22.0913 7.51964 22.0953C7.62525 21.9695 7.55794 21.8614 7.48003 21.7512C7.84809 20.1378 8.46359 18.6157 9.28553 17.2252C9.24409 17.5083 9.17996 17.7788 9.10316 18.0412C9.00389 18.3789 8.92241 18.7224 8.85262 19.0742C8.7162 19.7593 8.48341 20.4199 8.31121 21.0883C8.1419 21.7466 7.87962 22.3667 7.625 22.9606C7.69121 22.9606 7.75694 22.9606 7.82333 22.9606C7.87511 23.1206 7.9771 23.0168 8.15292 23.0346C8.04306 23.7645 7.98566 24.5111 7.98566 25.2709C7.98566 25.8551 8.01944 26.4351 8.08675 27.0073C8.15428 27.5825 8.25581 28.1552 8.39022 28.7207ZM14.9956 11.514C17.4828 10.0338 20.4035 9.18106 23.5276 9.18106C26.5614 9.18106 29.4035 9.98559 31.8435 11.3878C31.7478 11.6733 31.689 11.9936 31.6433 12.2983C29.2811 10.8802 26.5019 10.0622 23.5276 10.0622C20.5093 10.0622 17.6917 10.9042 15.3072 12.3613C15.2916 12.1317 15.2536 11.918 15.1597 11.74C15.1122 11.6497 15.0573 11.5768 14.9956 11.514ZM38.7739 19.2356C38.8824 19.4978 38.9837 19.7632 39.0783 20.032C39.0321 20.1124 38.9921 20.2018 38.9765 20.3182C38.9178 19.9595 38.8433 19.6007 38.7739 19.2356ZM39.3559 20.9002C39.4556 21.2465 39.5436 21.5977 39.6197 21.9532L39.6172 21.9724C39.6096 22.0447 39.6429 22.1184 39.6354 22.1812C39.6239 22.2753 39.56 22.3467 39.5641 22.4425C39.5695 22.5738 39.6701 22.6711 39.7064 22.7906C39.7284 22.7758 39.7484 22.7582 39.7671 22.7381C39.9006 23.5631 39.9702 24.4093 39.9702 25.2709C39.9702 25.8877 39.9333 26.5074 39.8599 27.1258C39.7869 27.7413 39.6775 28.3524 39.5325 28.9554C39.4763 29.1919 39.2345 29.3391 38.9927 29.284C38.7808 29.2358 38.6392 29.0483 38.6451 28.8434L38.6631 28.73C38.7977 28.1669 38.899 27.5979 38.9666 27.0258C39.0352 26.4477 39.0697 25.8615 39.0697 25.2709C39.0697 24.4824 39.0084 23.7079 38.89 22.9518C38.8286 22.2555 38.7259 21.5769 38.6568 20.8751C38.7522 20.8581 38.8819 20.783 38.9947 20.8403C38.988 21.1007 38.913 21.5388 39.1548 21.5192C39.3585 21.5034 39.303 21.1236 39.3559 20.9002ZM6.24389 25.4451C6.24389 25.6884 6.04216 25.8857 5.79362 25.8857C5.54509 25.8857 5.34336 25.6884 5.34336 25.4451C5.34336 22.6848 5.98565 20.0714 7.132 17.74C7.12907 17.8929 7.12299 18.0416 7.1106 18.1831C7.05299 18.8376 6.87849 19.409 6.75446 20.0038C6.71101 20.2113 6.59417 20.4112 6.59596 20.572C6.59778 20.7356 6.69906 20.8055 6.75446 20.946C6.7765 21.0022 6.79654 21.0659 6.81118 21.1324C6.44107 22.5093 6.24389 23.9546 6.24389 25.4451ZM8.38414 15.5915C8.62051 15.2443 8.86905 14.9055 9.12907 14.5761C9.14256 14.7995 9.15384 15.024 9.18222 15.265C9.20358 15.4465 9.24502 15.6265 9.27451 15.8069L9.28328 15.8635C8.63042 16.7914 8.06965 17.7861 7.61398 18.8349C7.64393 18.6333 7.69818 18.4241 7.74388 18.2606C7.82741 17.9625 7.92353 17.6629 8.00795 17.3953C8.14641 16.9558 8.32516 16.5716 8.37738 16.0913C8.3947 15.9323 8.37942 15.7525 8.38414 15.5915ZM13.8063 10.4048L13.8943 10.3504C13.8416 10.4476 13.7873 10.5447 13.745 10.6443C13.7151 10.6124 13.7543 10.5462 13.7515 10.5119C13.7689 10.4747 13.7869 10.439 13.8063 10.4048ZM13.9483 10.3176C16.7302 8.62723 20.0127 7.6509 23.5276 7.6509C26.986 7.6509 30.2187 8.59575 32.9713 10.2359C32.6438 10.3663 32.3694 10.5498 32.1615 10.7906C29.6213 9.35423 26.6724 8.53208 23.5276 8.53208C20.1575 8.53208 17.0125 9.47606 14.3542 11.1082C14.1446 11.023 13.8997 10.9727 13.6813 10.9075C13.6824 10.9034 13.6831 10.8996 13.684 10.8954C13.761 10.721 13.8274 10.5718 13.9073 10.3907L13.9483 10.3176ZM39.9657 17.8277C41.0853 20.1369 41.7118 22.7194 41.7118 25.4451C41.7118 25.6884 41.5101 25.8857 41.2616 25.8857C41.013 25.8857 40.8113 25.6884 40.8113 25.4451C40.8113 23.8044 40.572 22.2182 40.1267 20.718C40.072 20.362 39.9945 20.0011 39.9732 19.6214C39.9376 18.9988 39.9358 18.4245 39.9657 17.8277ZM38.6517 17.2525L38.5733 17.1162C38.5762 17.0578 38.5801 16.999 38.5851 16.9399C38.6172 17.0212 38.6334 17.1342 38.6517 17.2525ZM5.01244 21.3348C4.95615 21.5714 4.71437 21.7186 4.4726 21.6635C4.23083 21.6085 4.08041 21.3719 4.13671 21.1352C4.83594 18.2408 6.17454 15.6254 7.98523 13.4189C7.94583 13.5683 7.86702 13.726 7.80984 13.8833C7.74814 14.0542 7.68623 14.2298 7.625 14.3997C7.50594 14.7321 7.3157 15.0559 7.22945 15.4069C7.17294 15.6367 7.14571 15.8948 7.13358 16.1667C6.18377 17.7442 5.46067 19.4793 5.01244 21.3348ZM14.8916 8.04763C17.5222 6.8076 20.4585 6.12071 23.5276 6.12071C27.2099 6.12071 30.7016 7.10873 33.7037 8.85524C33.7365 9.00967 33.7181 9.1564 33.7633 9.2789C33.8174 9.42626 33.9632 9.49763 34.0301 9.62696C34.0938 9.75054 34.0947 9.87524 34.1726 9.99266C34.0819 9.99795 33.9932 10.0052 33.9061 10.0149C30.8973 8.09764 27.3189 7.00189 23.5276 7.00189C20.3779 7.00189 17.3763 7.75774 14.7263 9.11147C14.8078 8.9264 14.89 8.73124 14.8893 8.52459C14.9161 8.42853 14.9429 8.31532 14.9501 8.20648C14.9371 8.17916 14.9173 8.2402 14.9087 8.21905C14.9089 8.15889 14.9015 8.10271 14.8916 8.04763ZM39.769 14.3217C41.2026 16.294 42.2769 18.5521 42.8885 21.0154C42.9468 21.2511 42.7987 21.4886 42.5578 21.5457C42.3169 21.6027 42.0742 21.4578 42.0159 21.2221C41.6026 19.557 40.9673 17.9905 40.1456 16.5491C40.2595 16.3978 40.3775 16.3416 40.4 16.1739C40.4502 15.8032 40.0076 15.6686 39.9732 15.3384C39.9621 15.2335 40.0164 15.1134 39.9909 15.0247C39.9596 14.9161 39.8034 14.8528 39.7775 14.7464C39.7516 14.6409 39.8075 14.5226 39.7951 14.4153C39.7915 14.3838 39.7818 14.3525 39.769 14.3217ZM14.65 9.15045L14.5431 9.2062C14.5847 9.11806 14.6514 9.04602 14.7014 8.97224C14.7113 9.03744 14.6872 9.09782 14.65 9.15045ZM4.85373 16.9003C4.74612 17.1188 4.47732 17.2104 4.25401 17.1051C4.03067 16.9998 3.93702 16.7368 4.04463 16.5183C5.48182 13.6271 7.5379 11.1545 10.0116 9.2227C9.98341 9.39695 9.98208 9.56438 9.98906 9.71706C9.98477 9.73226 9.98051 9.74746 9.976 9.76199C9.94626 9.80429 9.90754 9.83073 9.87537 9.86817C9.88009 9.88315 9.8875 9.8966 9.89473 9.91026C9.82401 10.0429 9.67546 10.0856 9.62096 10.2182C9.74163 10.1889 9.82043 10.0869 9.90686 9.99903C10.0068 9.93691 10.0651 9.80296 10.1446 9.70582C9.96383 10.1594 9.60972 10.3141 9.31502 10.5718C9.33663 10.6022 9.3828 10.567 9.39876 10.5888C9.35106 10.6238 9.30421 10.6608 9.25694 10.6965C9.20473 10.7181 9.14954 10.741 9.08989 10.7584C8.95189 10.7996 8.80399 10.8267 8.70718 10.8877C8.3418 11.1177 8.22947 11.5189 8.16645 12.0368C8.16237 12.0687 8.15743 12.1002 8.15156 12.1317C6.84539 13.5392 5.72946 15.1385 4.85373 16.9003ZM10.0516 9.19142L10.1509 9.11477C10.1021 9.25596 10.0595 9.40598 10.0255 9.52627C10.0075 9.44079 10.0244 9.32712 10.0467 9.21499L10.0516 9.19142ZM10.2155 9.06521L10.256 9.03457C10.2542 9.05219 10.2531 9.06938 10.256 9.08458C10.2628 9.06521 10.2691 9.04315 10.2756 9.01958L10.3936 8.93127C10.3348 9.1923 10.2313 9.49147 10.069 9.61725C10.0926 9.42738 10.1457 9.23173 10.2155 9.06521ZM14.0748 6.7155C16.9686 5.34195 20.1894 4.59055 23.5276 4.59055C27.0499 4.59055 30.4425 5.42722 33.4581 6.94947C33.3961 7.03428 33.4272 7.2264 33.2665 7.19688C33.2773 7.22482 33.2686 7.24047 33.2519 7.25105C33.212 7.26317 33.1879 7.19621 33.1663 7.21736C33.1695 7.27661 33.214 7.27528 33.2307 7.31538C33.235 7.35107 33.2005 7.3621 33.1638 7.37155C33.2111 7.43038 33.2906 7.44117 33.3525 7.47839C33.3624 7.55067 33.2439 7.54073 33.2694 7.62334C33.3115 7.6163 33.3392 7.58986 33.3784 7.6011C33.4387 7.6987 33.3149 7.73305 33.269 7.78572C33.2849 7.81545 33.3457 7.77931 33.3615 7.8095L33.3295 7.87712C30.3702 6.32669 27.0159 5.47173 23.5276 5.47173C20.429 5.47173 17.436 6.14627 14.7317 7.38367C14.7189 7.34469 14.7054 7.30656 14.6914 7.26825C14.5552 7.07151 14.406 6.88139 14.1228 6.76289L14.0748 6.7155ZM36.8176 9.04823C37.2946 9.41085 37.757 9.79351 38.2028 10.1949C37.8892 10.1303 37.5387 10.1013 37.2329 10.0277C37.0961 9.73313 36.9079 9.48818 36.7458 9.21832C36.7874 9.22294 36.8273 9.23064 36.8604 9.25134C36.8354 9.19384 36.8 9.10528 36.8176 9.04823ZM39.5781 11.5506C40.9088 12.9865 42.0499 14.614 42.9536 16.4044C43.0632 16.622 42.9721 16.8857 42.7496 16.993C42.5272 17.1003 42.2577 17.0111 42.1481 16.7934C41.4462 15.4025 40.5945 14.1139 39.6172 12.9426C39.6469 12.421 39.6566 11.9511 39.5781 11.5506ZM6.02842 12.1117C5.87218 12.2998 5.58921 12.3282 5.39697 12.1753C5.20468 12.0225 5.17566 11.7455 5.33191 11.5574C7.55454 8.86981 10.3375 6.74548 13.4467 5.29348C16.557 3.84131 19.9958 3.06035 23.5276 3.06035C27.0988 3.06035 30.5733 3.85914 33.7109 5.34241C34.1751 5.56184 34.6319 5.79643 35.0803 6.04538C35.0663 6.04825 35.0526 6.05067 35.0396 6.05175C34.9833 6.05595 34.9292 6.01936 34.8955 6.02952C34.866 6.03876 34.8592 6.09143 34.8153 6.10572C34.7712 6.12004 34.7302 6.07952 34.6812 6.0901C34.6184 6.10376 34.6069 6.17491 34.5326 6.17159C34.5056 6.14319 34.4297 6.13174 34.3968 6.14781C34.3597 6.16367 34.3887 6.19407 34.3601 6.22359C34.3338 6.25157 34.2832 6.24716 34.2485 6.27185C34.2046 6.30333 34.198 6.36479 34.1238 6.38244C34.0731 6.39476 34.0211 6.35862 33.9677 6.3886C33.9464 6.39739 33.9486 6.42099 33.9439 6.44057C33.7377 6.33527 33.5299 6.23305 33.3205 6.13415C30.3059 4.70905 26.9646 3.94154 23.5276 3.94154C20.1309 3.94154 16.8243 4.69252 13.8335 6.08877C13.6559 6.17183 13.4791 6.25707 13.3038 6.34455L13.2972 6.34364C13.1694 6.28726 12.9985 6.26523 12.8589 6.2258C12.5336 6.17337 12.3101 6.29696 12.0566 6.36766C11.9821 6.3747 11.9321 6.42428 11.8596 6.43486C11.4828 6.61353 11.1631 6.97437 10.9839 7.41561C11.0372 7.34578 11.0769 7.2645 11.0996 7.1918C11.1172 7.20216 11.1162 7.18077 11.1282 7.18143C11.2029 7.06489 11.2781 6.9488 11.3724 6.86577C11.3396 6.90804 11.3162 6.96666 11.277 6.99748C11.1667 7.1495 11.0829 7.3469 10.9641 7.48326C10.9758 7.46869 10.9888 7.40548 10.9787 7.43234C10.978 7.43434 10.9776 7.43634 10.9771 7.43809C10.9604 7.47531 10.9368 7.49734 10.9341 7.54227C10.8578 7.62334 10.7941 7.72689 10.7371 7.84231C8.98521 9.02554 7.39607 10.4579 6.02842 12.1117ZM36.4049 6.83867C38.4558 8.16067 40.3043 9.80475 41.8658 11.7308C42.02 11.9209 41.9878 12.1978 41.7935 12.3487C41.5992 12.4996 41.3162 12.4681 41.162 12.278C39.877 10.6928 38.3903 9.30622 36.7525 8.14281C36.7384 8.0483 36.7325 7.95844 36.7904 7.89078C36.7638 7.80575 36.6805 7.78548 36.6382 7.7084C36.6109 7.65839 36.6292 7.59494 36.6102 7.53456C36.5868 7.46099 36.5279 7.42135 36.5202 7.35656C36.5155 7.31713 36.5472 7.27175 36.5378 7.23344C36.5191 7.1592 36.3718 7.10432 36.4556 7.01092C36.4142 6.96312 36.3322 6.89021 36.4049 6.83867ZM8.83011 7.26492C8.63311 7.4121 8.35082 7.37509 8.20045 7.18231C8.05004 6.98956 8.08786 6.7133 8.28487 6.56615C10.4744 4.93331 12.9089 3.67431 15.4843 2.82376C18.0609 1.97273 20.7766 1.53016 23.5276 1.53016C26.2761 1.53016 28.99 1.97231 31.5648 2.82222C34.139 3.67189 36.5727 4.92936 38.7613 6.55977C38.9583 6.70692 38.9961 6.98319 38.8457 7.17593C38.6953 7.36868 38.4131 7.40569 38.2161 7.25854C36.1053 5.68629 33.7597 4.474 31.2798 3.65536C28.8004 2.83697 26.1832 2.41134 23.5276 2.41134C20.8695 2.41134 18.2502 2.83742 15.7693 3.6569C13.2883 4.47642 10.9418 5.69025 8.83011 7.26492ZM14.9436 2.30695C14.7097 2.38669 14.4535 2.26552 14.372 2.03664C14.2905 1.80776 14.4143 1.55705 14.6482 1.47731C16.0769 0.988693 17.5417 0.618787 19.0262 0.372288C20.5134 0.125123 22.0192 0 23.5276 0C25.0476 0 26.5643 0.126665 28.0609 0.376911C29.554 0.626737 31.0269 1.00102 32.4625 1.49626C32.6964 1.57687 32.8194 1.82845 32.737 2.05734C32.6546 2.28622 32.3975 2.40651 32.1636 2.3259C30.7775 1.84761 29.3538 1.48611 27.9096 1.24444C26.467 1.00323 25.001 0.881185 23.5276 0.881185C22.0629 0.881185 20.6064 1.00169 19.1739 1.23982C17.7372 1.4784 16.3216 1.83549 14.9436 2.30695Z" fill="url(#paint0_linear_1_2065)"/>
<path fill-rule="evenodd" clip-rule="evenodd" d="M25 43.0699V45.9052H23.3645L23.3235 45.062C23.1005 45.3747 22.831 45.6031 22.5155 45.7488C22.2 45.8944 21.8182 45.9685 21.3723 45.9685C20.814 45.9685 20.3706 45.8109 20.04 45.4994C19.7093 45.1877 19.5423 44.7704 19.5423 44.2504C19.5423 43.6496 19.7835 43.2036 20.2647 42.9135C20.7445 42.6243 21.4864 42.4796 22.4852 42.4796H23.2236V42.4076C23.2236 42.1108 23.1095 41.8841 22.8794 41.7261C22.6493 41.5679 22.314 41.4889 21.8753 41.4889C21.6577 41.4889 21.413 41.5257 21.1369 41.6013C20.8623 41.6764 20.5661 41.7875 20.2487 41.9316L20.2166 40.7054C20.5234 40.5789 20.8552 40.4837 21.2117 40.4225C21.5699 40.3611 21.9626 40.3295 22.3907 40.3295C23.2914 40.3295 23.9502 40.5505 24.3705 40.9917C24.7898 41.432 25 42.1248 25 43.0699ZM22.9043 43.4389C22.3501 43.4389 21.9495 43.498 21.7058 43.6162C21.4613 43.7348 21.3401 43.9255 21.3401 44.1853C21.3401 44.3751 21.4068 44.5277 21.5363 44.6439C21.6669 44.7609 21.8414 44.8195 22.0572 44.8195C22.3995 44.8195 22.6786 44.7056 22.8973 44.4787C23.1151 44.2528 23.2236 43.957 23.2236 43.5933V43.4389H22.9043ZM17.2167 44.3506V45.9052H16.2749C15.7569 45.9052 15.3332 45.4879 15.3332 44.9776V42.4359V40.4875H17.0133V41.5205C17.2042 41.1182 17.4378 40.8213 17.7142 40.6281C17.9889 40.4366 18.3153 40.3399 18.6917 40.3399C18.7879 40.3399 18.9663 40.3593 19.2232 40.398L19.2606 40.4032L19.1608 42.0036C19.084 41.9719 18.9983 41.9491 18.9056 41.9333C18.8111 41.9175 18.7006 41.9105 18.5757 41.9105C18.1263 41.9105 17.7873 42.0527 17.559 42.3374C17.3308 42.622 17.2167 43.0418 17.2167 43.5933V44.3506ZM13.3765 44.6909C13.4387 44.7027 13.5457 44.716 13.6665 44.7227C13.7873 44.7295 13.9218 44.7295 14.0563 44.7295L13.4112 45.9052C12.7133 45.9052 12.0682 46.0561 11.5645 45.5099C11.231 45.148 11.0652 44.5595 11.0652 43.7445V41.8261H10.0058V40.4875H11.1704V39.235L12.9486 38.643V40.4875H14.2969V41.8261H12.9486V43.6935C12.9486 44.094 13.0146 44.3768 13.1467 44.542C13.2136 44.624 13.2758 44.6717 13.3765 44.6909ZM0 40.4875H1.88334V43.2174C1.88334 43.6426 1.9601 43.9587 2.11345 44.1679C2.26693 44.3768 2.50051 44.4823 2.81439 44.4823C3.16935 44.4823 3.43861 44.34 3.62055 44.0554C3.80429 43.7708 3.89524 43.3544 3.89524 42.8064V40.4875H5.77876V45.9052H4.06826V44.8899C3.85065 45.2516 3.57419 45.5258 3.23363 45.7154C2.89289 45.9052 2.50771 46 2.07602 46C1.40001 46 0.884651 45.7962 0.531465 45.3887C0.176504 44.9812 0 44.3891 0 43.6074V40.4875ZM7.22336 38H9.10688V45.9052H8.16512C7.64706 45.9052 7.22336 45.4879 7.22336 44.9776V38Z" fill="#0B2836"/>
<path fill-rule="evenodd" clip-rule="evenodd" d="M44.3423 42.6178C44.305 42.2566 44.1864 41.9722 43.9898 41.7661C43.7915 41.5585 43.5417 41.4556 43.2371 41.4556C42.9361 41.4556 42.6898 41.5585 42.495 41.7661C42.3019 41.9722 42.1833 42.2566 42.1425 42.6178H44.3423ZM46 43.2566V43.7069H42.1638C42.2011 44.0577 42.3551 44.3282 42.6261 44.5201C42.8953 44.7104 43.2583 44.8063 43.7153 44.8063C43.9881 44.8063 44.2785 44.768 44.5831 44.6928C44.8859 44.6178 45.1995 44.5061 45.5218 44.356V45.6737C45.2171 45.7819 44.9002 45.8639 44.569 45.918C44.2395 45.9722 43.8942 46 43.5346 46C42.5375 46 41.7583 45.7417 41.1986 45.2234C40.6372 44.7051 40.3573 43.986 40.3573 43.0646C40.3573 42.2269 40.6159 41.5602 41.1331 41.0663C41.6502 40.5724 42.3498 40.3246 43.2282 40.3246C44.1138 40.3246 44.7975 40.5794 45.2792 41.0873C45.7591 41.5951 46 42.3194 46 43.2566ZM39.3479 42.7016V45.8534H37.4882V43.0855C37.4882 42.6632 37.4121 42.3491 37.2597 42.1414C37.1075 41.9354 36.8755 41.8325 36.5638 41.8325C36.2396 41.8325 35.9792 41.9617 35.7844 42.2217C35.5879 42.48 35.4905 42.829 35.4905 43.2653V45.8534H33.6202V40.4712H35.3187V41.4346C35.5348 41.0734 35.8111 40.7975 36.1493 40.6091C36.4894 40.4189 36.872 40.3246 37.297 40.3246C37.9647 40.3246 38.4748 40.527 38.8236 40.9302C39.1726 41.3351 39.3479 41.9249 39.3479 42.7016ZM30.3154 38H32.1857V39.4974H30.3154V38ZM30.3154 40.4712H32.1857V45.8534H30.3154V40.4712ZM27 38H28.8703V45.8534H27.9352C27.4207 45.8534 27 45.4388 27 44.9319V38Z" fill="#259CEE"/>
<defs>
<linearGradient id="paint0_linear_1_2065" x1="4" y1="1.69023e-08" x2="4" y2="36" gradientUnits="userSpaceOnUse">
<stop stop-color="#102A83"/>
<stop offset="1" stop-color="#259CEE"/>
</linearGradient>
</defs>
</svg>
