<svg width="20" height="21" viewBox="0 0 20 21" fill="none" xmlns="http://www.w3.org/2000/svg">
<g clip-path="url(#clip0_1_2034)">
<path d="M19.2142 6.60795C18.7106 5.41709 17.9897 4.34764 17.0715 3.42936C16.1533 2.51105 15.084 1.79002 13.8931 1.28627C12.66 0.764609 11.3504 0.500078 10 0.5C8.65031 0.5 7.34072 0.764453 6.10764 1.286C4.91684 1.78965 3.84746 2.51059 2.92922 3.42877C2.01098 4.34695 1.28998 5.41629 0.78625 6.60705C0.264609 7.84012 7.81423e-05 9.14971 1.73086e-08 10.4994C-7.81077e-05 11.8492 0.264316 13.1589 0.78582 14.3921C1.28943 15.5829 2.01035 16.6524 2.92853 17.5706C3.84672 18.489 4.91607 19.21 6.10689 19.7138C7.34002 20.2354 8.64967 20.4999 9.99992 20.5H10.0001C11.3498 20.5 12.6593 20.2356 13.8924 19.714C15.0832 19.2104 16.1526 18.4894 17.0708 17.5713C17.989 16.6531 18.7101 15.5838 19.2138 14.393C19.7354 13.1599 19.9999 11.8503 20 10.5006C20.0001 9.1508 19.7357 7.84113 19.2142 6.60795ZM10.0001 19.5689H9.99949C7.57711 19.5688 5.29975 18.6253 3.58693 16.9123C1.87416 15.1993 0.930957 12.9219 0.931094 10.4995C0.931387 5.49916 4.99969 1.43111 10.0005 1.43111C12.4229 1.43125 14.7003 2.37471 16.413 4.0877C18.1258 5.8007 19.069 8.07814 19.0689 10.5005C19.0686 15.5008 15.0004 19.5689 10.0001 19.5689Z" fill="#09D261"/>
<path d="M14.2669 6.2513C13.1553 5.1162 11.6184 4.5 10.049 4.5C6.71381 4.5 4.03271 7.19181 4.06544 10.4675C4.06544 11.5052 4.35969 12.5109 4.85016 13.4189L4 16.5L7.17171 15.6892C8.05441 16.1757 9.03536 16.4027 10.0163 16.4027C13.3187 16.4027 16 13.7109 16 10.4351C16 8.8459 15.3786 7.35399 14.2669 6.2513ZM10.049 15.3971C9.16614 15.3971 8.28335 15.1704 7.53122 14.7162L7.33517 14.6189L5.43865 15.1055L5.92909 13.2568L5.79836 13.0623C4.35969 10.7594 5.04637 7.71081 7.40047 6.28384C9.75473 4.85684 12.7955 5.53794 14.2342 7.87296C15.673 10.2082 14.9863 13.2245 12.6321 14.6513C11.8801 15.1377 10.9645 15.3971 10.049 15.3971ZM12.9263 11.7973L12.5667 11.6351C12.5667 11.6351 12.0436 11.408 11.7166 11.2458C11.6839 11.2458 11.6512 11.2136 11.6184 11.2136C11.5204 11.2136 11.4549 11.2458 11.3896 11.2784C11.3896 11.2784 11.3569 11.3108 10.8992 11.8296C10.8664 11.8945 10.801 11.9271 10.7357 11.9271H10.7029C10.6702 11.9271 10.6049 11.8945 10.5722 11.8622L10.4087 11.7973C10.049 11.6351 9.72194 11.4407 9.46047 11.181C9.39506 11.1163 9.29697 11.0514 9.23151 10.9865C9.00256 10.7594 8.77376 10.5 8.61032 10.2082L8.57755 10.1432C8.54484 10.1108 8.54484 10.0784 8.51213 10.0135C8.51213 9.94859 8.51213 9.88383 8.54488 9.85134C8.54488 9.85134 8.67565 9.68917 8.7738 9.59194C8.83911 9.52701 8.87186 9.42976 8.9373 9.36483C9.0026 9.26762 9.03532 9.13773 9.0026 9.04054C8.97005 8.87837 8.57761 8.00264 8.4796 7.80816C8.41415 7.71077 8.34863 7.67828 8.25066 7.64598H8.15264C8.08718 7.64598 7.98914 7.64598 7.89097 7.64598C7.82566 7.64598 7.7602 7.67828 7.69476 7.67828L7.66219 7.71077C7.59676 7.74323 7.53124 7.80816 7.46596 7.84044C7.40053 7.90539 7.36778 7.97033 7.30248 8.03508C7.07352 8.32693 6.94277 8.68373 6.94277 9.04054C6.94277 9.29991 7.00821 9.55947 7.10623 9.7864L7.139 9.88379C7.43324 10.4999 7.82568 11.0513 8.34867 11.5378L8.47964 11.6674C8.57763 11.7649 8.67569 11.8296 8.74117 11.9271C9.42784 12.5109 10.2126 12.9324 11.0954 13.1595C11.1935 13.1918 11.3242 13.1918 11.4224 13.2244C11.5204 13.2244 11.6512 13.2244 11.7494 13.2244C11.9129 13.2244 12.1089 13.1595 12.2398 13.0946C12.3378 13.0296 12.4034 13.0296 12.4686 12.9646L12.5341 12.9C12.5994 12.8351 12.6649 12.8025 12.7303 12.7379C12.7956 12.6729 12.8611 12.608 12.8938 12.5431C12.9591 12.4135 12.9918 12.2513 13.0246 12.0892C13.0246 12.0243 13.0246 11.927 13.0246 11.8621C13.0245 11.8622 12.9918 11.8296 12.9263 11.7973Z" fill="#09D261"/>
</g>
<defs>
<clipPath id="clip0_1_2034">
<rect width="20" height="20" fill="white" transform="translate(0 0.5)"/>
</clipPath>
</defs>
</svg>
