<svg width="869" height="416" viewBox="0 0 869 416" fill="none" xmlns="http://www.w3.org/2000/svg">
<path d="M215.639 410.826L215.639 410.828C216.421 413.185 219 414.5 221.526 414.5C224.031 414.5 226.597 413.204 227.406 410.879L227.41 410.868L256.816 324.328L279.033 369.459L279.035 369.461C280.055 371.523 282.477 372.619 284.857 372.564C287.223 372.51 289.616 371.315 290.481 369.159L300.745 343.777H592.398C593.969 343.777 595.446 343.297 596.563 342.447C597.682 341.595 598.5 340.312 598.5 338.776C598.5 337.24 597.682 335.956 596.563 335.105C595.446 334.255 593.969 333.775 592.398 333.775H296.356C293.916 333.775 291.45 334.984 290.561 337.194L284.136 353.063L261.423 306.921L261.419 306.915C260.371 304.81 257.854 303.726 255.458 303.816C253.064 303.906 250.643 305.2 249.887 307.449C249.887 307.45 249.886 307.451 249.886 307.452L221.625 390.61L172.57 242.174L172.568 242.169C171.789 239.845 169.27 238.521 166.758 238.501C164.237 238.466 161.695 239.748 160.835 242.025L160.833 242.033L160.83 242.04L115.126 367.083L84.6787 314.346L84.6768 314.343C83.5849 312.463 81.2978 311.472 79.0501 311.508C76.8166 311.544 74.5485 312.592 73.5527 314.547C73.5518 314.549 73.5509 314.551 73.5501 314.552L63.5857 333.85H7.60159C6.02782 333.85 4.5509 334.336 3.43549 335.187C2.31996 336.038 1.5 337.321 1.5 338.851C1.5 340.381 2.31996 341.664 3.43549 342.515C4.55091 343.366 6.02782 343.852 7.60159 343.852H67.6395C69.9295 343.852 72.2403 342.785 73.2576 340.817L73.258 340.816L79.4834 328.757L110.895 383.189L110.899 383.196C112.042 385.153 114.473 386.153 116.818 386.025C119.138 385.899 121.471 384.656 122.254 382.485C122.255 382.483 122.255 382.482 122.256 382.481L166.374 261.754L215.639 410.826Z" fill="#F3F7FF" stroke="#F3F7FF" stroke-width="3"/>
<path d="M841.639 173.826L841.639 173.828C842.421 176.185 845 177.5 847.526 177.5C850.031 177.5 852.597 176.204 853.406 173.879L853.41 173.868L882.816 87.3283L905.033 132.459L905.035 132.461C906.055 134.523 908.477 135.619 910.857 135.564C913.223 135.51 915.616 134.315 916.481 132.159L926.745 106.777H1218.4C1219.97 106.777 1221.45 106.297 1222.56 105.447C1223.68 104.595 1224.5 103.312 1224.5 101.776C1224.5 100.24 1223.68 98.9563 1222.56 98.1048C1221.45 97.2549 1219.97 96.775 1218.4 96.775H922.356C919.917 96.775 917.452 97.9832 916.562 100.192C916.561 100.193 916.561 100.193 916.561 100.194L910.136 116.063L887.423 69.9212L887.419 69.9149C886.371 67.8098 883.854 66.7257 881.458 66.8159C879.064 66.9061 876.643 68.2002 875.887 70.4487C875.887 70.4499 875.886 70.4512 875.886 70.4524L847.625 153.61L798.57 5.17436L798.568 5.1685C797.789 2.84494 795.27 1.52059 792.758 1.5007C790.237 1.4664 787.695 2.74814 786.835 5.02525L786.833 5.03259L786.83 5.03996L741.126 130.083L710.679 77.3462L710.677 77.3429C709.585 75.4629 707.298 74.4715 705.05 74.5079C702.817 74.5441 700.548 75.5923 699.553 77.5471C699.552 77.5488 699.551 77.5505 699.55 77.5523L689.586 96.8501H633.602C632.028 96.8501 630.551 97.3357 629.435 98.1869C628.32 99.0381 627.5 100.321 627.5 101.851C627.5 103.381 628.32 104.664 629.435 105.515C630.551 106.366 632.028 106.852 633.602 106.852H693.639C695.93 106.852 698.24 105.785 699.258 103.817L699.258 103.816L705.483 91.7569L736.895 146.189L736.899 146.196C738.042 148.153 740.473 149.153 742.818 149.025C745.138 148.899 747.471 147.656 748.254 145.485C748.255 145.483 748.255 145.482 748.256 145.481L792.374 24.7543L841.639 173.826Z" fill="#F3F7FF" stroke="#F3F7FF" stroke-width="3"/>
</svg>
